<svg width="121" height="138" viewBox="0 0 121 138" fill="none" xmlns="http://www.w3.org/2000/svg">
<path d="M84.8749 51.5817C85.0267 51.0163 85.6076 50.6809 86.1751 50.8314C86.7402 50.9828 87.0763 51.5654 86.925 52.1323C86.7718 52.6996 86.1909 53.0355 85.6239 52.8827C85.0579 52.7293 84.7227 52.1496 84.8749 51.5817Z" fill="#E53750"/>
<path d="M114.963 38.5687C116.232 37.5912 118.049 37.8293 119.026 39.1015C120 40.3713 119.761 42.1921 118.49 43.1677C117.223 44.1438 115.4 43.9056 114.426 42.6325C113.453 41.3617 113.689 39.5428 114.963 38.5692" fill="#26BCEC"/>
<path d="M88.6571 46.8488C88.9578 46.1204 89.7939 45.7716 90.5228 46.0759C91.2521 46.3778 91.5988 47.2115 91.2962 47.9422C90.9945 48.6706 90.1588 49.018 89.4295 48.7151C88.6992 48.4132 88.354 47.5795 88.6566 46.8488" fill="#FECC38"/>
<path d="M100.045 40.1603C100.773 39.213 102.13 39.0323 103.079 39.7612C104.028 40.4871 104.205 41.847 103.476 42.7952C102.751 43.744 101.392 43.9246 100.445 43.1954C99.4969 42.467 99.3163 41.1076 100.045 40.1598" fill="#00ACB0"/>
<path d="M93.805 42.9701C94.302 42.1114 95.3996 41.8153 96.2568 42.3117C97.1188 42.8081 97.4109 43.9064 96.9157 44.7674C96.4211 45.6271 95.3201 45.9222 94.4629 45.4253C93.6024 44.9299 93.3089 43.8307 93.805 42.9706M107.176 38.636C108.166 37.6461 109.766 37.6461 110.757 38.636C111.745 39.6231 111.745 41.2269 110.757 42.2154C109.77 43.2049 108.164 43.2073 107.178 42.2154C106.189 41.2269 106.187 39.6231 107.176 38.636ZM80.317 51.2606C80.317 50.6751 80.7921 50.2002 81.3792 50.1993C81.9634 50.1993 82.4394 50.6751 82.4399 51.2621C82.4399 51.8495 81.9644 52.3239 81.3777 52.3234C80.7916 52.3234 80.3166 51.849 80.317 51.2606Z" fill="#233D8D"/>
<path d="M114.299 30.2592C115.573 28.9808 117.644 28.9798 118.92 30.2573C120.193 31.5328 120.193 33.6 118.916 34.8793C117.649 36.1539 115.575 36.1539 114.302 34.8784C113.024 33.6009 113.022 31.5338 114.299 30.2592" fill="#00ACB0"/>
<path d="M106.013 30.8994C106.986 29.6277 108.804 29.3852 110.076 30.3617C111.345 31.3354 111.585 33.1553 110.61 34.4279C109.639 35.6992 107.816 35.9412 106.546 34.9637C105.277 33.9881 105.036 32.1692 106.013 30.8994Z" fill="#FECC38"/>
<path d="M82.7464 45.7091C82.8484 44.9281 83.5652 44.3746 84.3482 44.4796C85.1311 44.5816 85.6818 45.2989 85.5789 46.0819C85.4759 46.8629 84.7581 47.4164 83.9747 47.3119C83.1922 47.2089 82.6434 46.4926 82.7464 45.7091Z" fill="#00ACB0"/>
<path d="M92.0159 36.3002C92.4747 35.1967 93.7379 34.671 94.8436 35.1286C95.9484 35.5853 96.4709 36.8536 96.0131 37.9576C95.5567 39.0626 94.291 39.5887 93.1877 39.1292C92.0839 38.6711 91.5571 37.4042 92.0159 36.3002Z" fill="#E53750"/>
<path d="M86.7148 40.6303C86.9734 39.672 87.9574 39.1018 88.9138 39.3591C89.8739 39.6145 90.4404 40.6001 90.1852 41.5599C89.9299 42.5182 88.9425 43.0885 87.9857 42.8297C87.0265 42.5748 86.4581 41.5887 86.7152 40.6303M98.5094 32.9809C99.2095 31.7686 100.756 31.3537 101.968 32.0532C103.178 32.7514 103.593 34.3005 102.894 35.5114C102.197 36.7218 100.647 37.1391 99.437 36.4376C98.2269 35.738 97.8088 34.1908 98.5094 32.9809ZM75.8319 52.1313C75.681 51.5659 76.0162 50.9837 76.5828 50.8308C77.1478 50.6789 77.7301 51.0158 77.8824 51.5831C78.0342 52.1495 77.6981 52.7312 77.1306 52.8826C76.5655 53.034 75.9832 52.6991 75.8319 52.1313Z" fill="#26BCEC"/>
<path d="M103.223 23.0436C104.123 21.4796 106.123 20.9425 107.687 21.8457C109.246 22.748 109.78 24.7447 108.878 26.3115C107.984 27.8708 105.981 28.4079 104.421 27.5047C102.856 26.6024 102.319 24.6057 103.224 23.0436" fill="#E53750"/>
<path d="M95.3857 25.8083C95.9963 24.3277 97.6901 23.6233 99.1712 24.2366C100.649 24.849 101.352 26.5452 100.739 28.0268C100.129 29.5055 98.4314 30.2118 96.9521 29.5961C95.4738 28.9828 94.7699 27.2884 95.3862 25.8083" fill="#00ACB0"/>
<path d="M76.7422 46.1394C76.6378 45.3583 77.1876 44.6386 77.971 44.537C78.7549 44.4331 79.4713 44.9827 79.5752 45.7666C79.6772 46.5476 79.127 47.2678 78.3445 47.3699C77.5606 47.4734 76.8457 46.9233 76.7422 46.1399" fill="#E53750"/>
<path d="M83.2621 34.6512C83.4201 33.4662 84.5038 32.6315 85.69 32.7872C86.8752 32.9415 87.7079 34.0312 87.5514 35.2166C87.3967 36.4016 86.3101 37.2373 85.1259 37.0791C83.9411 36.9239 83.105 35.8362 83.2621 34.6512Z" fill="#233D8D"/>
<path d="M79.2621 40.2057C79.2635 39.2138 80.0666 38.4074 81.0569 38.4088C82.0505 38.4074 82.8527 39.2119 82.8541 40.2057C82.8555 41.1976 82.0496 42.0045 81.0583 42.0026C80.0656 42.0036 79.2621 41.199 79.2621 40.2057ZM88.6758 29.7628C89.0378 28.4096 90.4246 27.6089 91.7765 27.9707C93.1255 28.332 93.9266 29.7206 93.565 31.0709C93.2045 32.4221 91.8157 33.2262 90.4667 32.862C89.1154 32.4998 88.3118 31.1131 88.6758 29.7628ZM71.7241 54.1337C71.432 53.6257 71.6054 52.9774 72.1134 52.6832C72.6196 52.3909 73.269 52.5649 73.5625 53.0728C73.8556 53.5807 73.6822 54.23 73.1732 54.5227C72.6656 54.815 72.0167 54.6425 71.7236 54.1332" fill="#FECC38"/>
<path d="M90.6593 18.944C91.1238 17.1999 92.9167 16.1634 94.6602 16.6306C96.3995 17.0983 97.4329 18.8889 96.966 20.635C96.5063 22.3729 94.7105 23.4113 92.9703 22.9427C91.2248 22.4755 90.19 20.6863 90.6593 18.944Z" fill="#233D8D"/>
<path d="M83.8032 23.6436C84.0101 22.0556 85.4635 20.9363 87.0533 21.1452C88.6384 21.3541 89.7566 22.8103 89.5473 24.4002C89.3414 25.9872 87.8837 27.1084 86.2958 26.8966C84.7093 26.6872 83.5911 25.2334 83.8032 23.6436Z" fill="#E53750"/>
<path d="M71.0537 48.1106C70.752 47.3823 71.0968 46.5452 71.8266 46.2443C72.5559 45.941 73.3906 46.2864 73.6923 47.0157C73.994 47.7441 73.6492 48.5817 72.9189 48.8835C72.1901 49.1864 71.3563 48.8404 71.0542 48.1102" fill="#233D8D"/>
<path d="M74.379 35.3245C74.2258 34.1396 75.0571 33.0523 76.2428 32.8952C77.4275 32.737 78.5136 33.5741 78.6692 34.7601C78.8253 35.9446 77.9921 37.0337 76.8074 37.1875C75.6226 37.3437 74.5332 36.5105 74.379 35.3245Z" fill="#26BCEC"/>
<path d="M71.953 41.7262C71.6978 40.7679 72.2643 39.7808 73.222 39.5254C74.1812 39.2667 75.1639 39.8369 75.4229 40.7962C75.6806 41.7531 75.1107 42.7416 74.153 42.9956C73.1943 43.2543 72.2097 42.6855 71.953 41.7262ZM78.3441 29.2008C78.3441 27.8002 79.4771 26.6675 80.8763 26.6675C82.2732 26.6665 83.4058 27.8002 83.4062 29.1989C83.4077 30.5962 82.2742 31.7337 80.8763 31.7304C79.478 31.7304 78.3431 30.5995 78.345 29.2004M68.2743 57.1315C67.861 56.717 67.861 56.0452 68.2753 55.6297C68.6885 55.2153 69.3614 55.2153 69.7761 55.6297C70.1908 56.0457 70.1903 56.7175 69.7751 57.1319C69.3604 57.5469 68.689 57.5474 68.2743 57.1315Z" fill="#00ACB0"/>
<path d="M77.462 18.2376C77.4591 16.4326 78.9226 14.9663 80.7279 14.9663C82.5294 14.9677 83.9905 16.4297 83.9919 18.2371C83.9967 20.0349 82.5304 21.5026 80.7284 21.5002C78.9216 21.5017 77.4591 20.0412 77.4615 18.2371" fill="#26BCEC"/>
<path d="M72.0555 24.553C71.8448 22.9651 72.9591 21.5079 74.5485 21.2976C76.1336 21.0887 77.5903 22.2061 77.8001 23.7955C78.0108 25.3806 76.8931 26.8415 75.3051 27.049C73.7177 27.257 72.2619 26.1424 72.0555 24.553Z" fill="#233D8D"/>
<path d="M54.3037 9.52972C54.093 7.94224 55.2073 6.4851 56.7967 6.27522C58.3818 6.06583 59.8385 7.18324 60.0482 8.77264C60.2589 10.3587 59.1412 11.8192 57.5533 12.0262C55.9658 12.2346 54.5101 11.1196 54.3037 9.52972Z" fill="#00ACB0"/>
<path d="M66.0691 51.4871C65.5893 50.8628 65.7052 49.9643 66.3325 49.4842C66.9589 49.0031 67.8553 49.12 68.3351 49.7477C68.814 50.3726 68.6976 51.2715 68.0703 51.7516C67.444 52.2327 66.5494 52.1148 66.0686 51.4881" fill="#26BCEC"/>
<path d="M65.9748 38.2766C65.5189 37.1712 66.0418 35.9057 67.1461 35.4471C68.2499 34.9871 69.5151 35.5142 69.9714 36.6196C70.4302 37.7236 69.9068 38.9915 68.802 39.4467C67.6982 39.9043 66.4306 39.3816 65.9748 38.2766Z" fill="#FECC38"/>
<path d="M32.1673 17.3479C31.7123 16.243 32.2343 14.9775 33.3386 14.5189C34.4424 14.0589 35.7076 14.586 36.1639 15.6909C36.6227 16.7949 36.0993 18.0628 34.9955 18.518C33.8907 18.9756 32.6232 18.4529 32.1673 17.3479ZM37.58 135.977C37.125 134.872 37.647 133.606 38.7513 133.148C39.8556 132.689 41.1208 133.215 41.5776 134.32C42.0359 135.424 41.5125 136.691 40.4082 137.146C39.3039 137.604 38.0363 137.082 37.5805 135.976" fill="#233D8D"/>
<path d="M65.2861 45.0878C64.792 44.2282 65.0841 43.128 65.9422 42.6335C66.8023 42.1352 67.8989 42.4308 68.3974 43.2909C68.8935 44.1486 68.5985 45.2507 67.7389 45.7452C66.8803 46.2435 65.7823 45.9479 65.2861 45.0878ZM47.2101 2.69639C46.7159 1.83677 47.008 0.736601 47.8662 0.242101C48.7262 -0.256232 49.8229 0.0398934 50.3214 0.899518C50.818 1.75723 50.5225 2.85931 49.6634 3.35381C48.8048 3.85214 47.7062 3.5565 47.2101 2.69639ZM68.2207 31.3343C67.8582 29.9811 68.6589 28.5934 70.0107 28.2312C71.3592 27.8689 72.747 28.6701 73.109 30.0214C73.471 31.3707 72.6704 32.7622 71.32 33.1216C69.9695 33.4843 68.5798 32.6855 68.2202 31.3343M65.7176 60.9209C65.211 60.6276 65.0376 59.9789 65.3297 59.47C65.6218 58.963 66.2722 58.7896 66.7798 59.0818C67.2883 59.3756 67.4621 60.0248 67.1676 60.5328C66.8746 61.0407 66.2271 61.2151 65.7181 60.9209" fill="#E53750"/>
<path d="M64.5319 20.9725C64.0626 19.2302 65.097 17.4348 66.8411 16.9676C68.5808 16.5019 70.3703 17.5354 70.8387 19.281C71.308 21.0166 70.2717 22.8139 68.5305 23.2787C66.786 23.7483 64.9955 22.7162 64.5319 20.9725Z" fill="#FECC38"/>
<path d="M60.9432 28.4726C60.3288 26.9939 61.0285 25.2977 62.5092 24.6824C63.9865 24.0705 65.6822 24.7725 66.2956 26.2541C66.91 27.7309 66.2085 29.431 64.7273 30.0429C63.2476 30.6548 61.5533 29.9552 60.9432 28.4726Z" fill="#26BCEC"/>
<path d="M62.128 56.0403C61.5021 55.5612 61.3824 54.6632 61.8646 54.0374C62.3444 53.4097 63.2399 53.2918 63.8663 53.7729C64.4912 54.2521 64.6109 55.1505 64.1297 55.7768C63.6484 56.4045 62.7543 56.5219 62.128 56.0403Z" fill="#FECC38"/>
<path d="M58.6193 43.3031C57.8928 42.3544 58.07 40.9969 59.0187 40.2676C59.9659 39.5383 61.3244 39.7194 62.0514 40.6682C62.7792 41.6169 62.6021 42.9763 61.6529 43.7023C60.7048 44.4306 59.3448 44.2533 58.6188 43.3046" fill="#00ACB0"/>
<path d="M59.7159 50.0609C59.0158 49.3584 59.0139 48.2209 59.7159 47.5204C60.4165 46.816 61.5524 46.8179 62.2558 47.5194C62.9579 48.2199 62.9579 49.3604 62.2558 50.0604C61.5548 50.7638 60.417 50.7634 59.7159 50.0604" fill="#233D8D"/>
<path d="M21.1714 36.2782C20.4713 35.5757 20.4694 34.4382 21.1714 33.7376C21.872 33.0333 23.0079 33.0352 23.7113 33.7367C24.4134 34.4372 24.4138 35.5781 23.7113 36.2777C23.0103 36.9811 21.8725 36.9811 21.1714 36.2782Z" fill="#E53750"/>
<path d="M58.9928 36.0162C58.2936 34.8029 58.7074 33.2561 59.9199 32.5551C61.1286 31.8555 62.6763 32.271 63.3754 33.4818C64.0746 34.6913 63.6608 36.2433 62.4493 36.9405C61.2378 37.64 59.69 37.228 58.9928 36.0157M64.2283 65.2429C63.6632 65.091 63.328 64.5098 63.4789 63.942C63.6297 63.3766 64.2125 63.0402 64.779 63.1916C65.3455 63.344 65.6812 63.9257 65.5285 64.493C65.3762 65.0594 64.7958 65.3953 64.2283 65.2429Z" fill="#233D8D"/>
<path d="M52.7502 26.9633C51.8451 25.4013 52.3805 23.3993 53.944 22.4961C55.5042 21.5962 57.5001 22.1319 58.4047 23.6964C59.3074 25.2508 58.7716 27.2556 57.2095 28.1555C55.6455 29.0602 53.6495 28.5269 52.7497 26.9624" fill="#00ACB0"/>
<path d="M51.2231 35.1368C50.2471 33.867 50.4842 32.048 51.7556 31.0705C53.0246 30.0964 54.8443 30.3355 55.8198 31.6072C56.7948 32.8751 56.5572 34.6993 55.2844 35.6734C54.0154 36.6476 52.1962 36.4113 51.2231 35.1368Z" fill="#FECC38"/>
<path d="M59.498 61.4587C58.7701 61.1578 58.422 60.3211 58.7256 59.5919C59.0273 58.8621 59.862 58.5152 60.5908 58.818C61.3187 59.1189 61.6663 59.9555 61.3637 60.6853C61.062 61.4156 60.2288 61.7606 59.4985 61.4582" fill="#00ACB0"/>
<path d="M52.8144 50.0642C51.8676 49.3358 51.6871 47.9779 52.4155 47.0282C53.1414 46.078 54.5005 45.9012 55.4482 46.6304C56.3963 47.3564 56.5769 48.7158 55.848 49.6636C55.1201 50.6123 53.7616 50.793 52.8144 50.0642Z" fill="#E53750"/>
<path d="M55.6225 56.3075C54.7643 55.8102 54.4684 54.7119 54.9645 53.8542C55.4601 52.9917 56.5577 52.6994 57.4183 53.1949C58.2774 53.6898 58.5723 54.7914 58.0743 55.6492C57.5796 56.5102 56.4816 56.8039 55.6225 56.3075ZM51.2906 42.9292C50.3008 41.9373 50.3008 40.336 51.2906 39.345C52.2771 38.357 53.8799 38.357 54.8678 39.345C55.8562 40.3331 55.8591 41.9392 54.8678 42.9263C53.8799 43.9158 52.2771 43.9182 51.2906 42.9287M63.908 69.8037C63.3228 69.8037 62.8482 69.3284 62.8472 68.7409C62.8463 68.1564 63.3223 67.6801 63.9084 67.6796C64.4955 67.6796 64.9701 68.1554 64.9691 68.7424C64.9691 69.3294 64.4951 69.8042 63.908 69.8037Z" fill="#26BCEC"/>
<path d="M40.1716 31.5099C38.8945 30.2353 38.8931 28.1634 40.1697 26.8859C41.4445 25.6128 43.5103 25.6128 44.7889 26.8907C46.0627 28.1581 46.0627 30.2334 44.7875 31.507C43.5108 32.7864 41.445 32.7878 40.1712 31.5099" fill="#E53750"/>
<path d="M43.5587 44.0917C42.2878 43.119 42.0455 41.2996 43.0214 40.0264C43.995 38.7567 45.8142 38.5171 47.0856 39.4922C48.3556 40.4639 48.5974 42.2876 47.6205 43.5584C46.6455 44.8282 44.8287 45.0701 43.5587 44.0917Z" fill="#00ACB0"/>
<path d="M58.3597 67.3735C57.5792 67.271 57.0261 66.5532 57.1309 65.7702C57.2329 64.9868 57.9498 64.4357 58.7323 64.5388C59.5129 64.6418 60.0655 65.36 59.9615 66.144C59.8586 66.9269 59.1427 67.4765 58.3597 67.3735Z" fill="#E53750"/>
<path d="M60.7598 79.0727C60.0319 79.3746 59.1949 79.0296 58.8941 78.2993C58.5915 77.5695 58.9372 76.7339 59.6661 76.432C60.394 76.1301 61.2306 76.4751 61.5323 77.2054C61.8349 77.9356 61.4892 78.7699 60.7594 79.0722" fill="#26BCEC"/>
<path d="M48.9566 58.0981C47.8537 57.6391 47.3284 56.3751 47.7857 55.2687C48.2416 54.1632 49.5087 53.6405 50.6125 54.0985C51.7163 54.5547 52.2421 55.8216 51.7829 56.9256C51.326 58.0301 50.0599 58.5572 48.9566 58.0981Z" fill="#233D8D"/>
<path d="M53.2837 63.4017C52.3259 63.1429 51.7561 62.1592 52.0137 61.2023C52.2689 60.2416 53.254 59.6747 54.2132 59.9297C55.1709 60.1851 55.7408 61.1726 55.4822 62.1305C55.2269 63.0902 54.2419 63.659 53.2832 63.4012" fill="#FECC38"/>
<path d="M34.0952 47.7159C32.8837 47.0148 32.469 45.4671 33.1686 44.2544C33.8658 43.0435 35.4136 42.629 36.6241 43.3277C37.8338 44.0258 38.2509 45.5769 37.5498 46.7872C36.8506 47.9981 35.3039 48.4164 34.0947 47.7154" fill="#233D8D"/>
<path d="M64.7776 74.2914C64.2125 74.4423 63.6307 74.1069 63.4784 73.54C63.3266 72.9746 63.6628 72.3919 64.2293 72.2401C64.7963 72.0882 65.3776 72.425 65.5289 72.9923C65.6793 73.5587 65.3446 74.1409 64.7771 74.2918M7.32237 46.883C5.75933 45.9832 5.22251 43.9817 6.12519 42.4172C7.02691 40.857 9.02237 40.3223 10.5883 41.225C12.1465 42.1196 12.6834 44.124 11.7807 45.6846C10.8785 47.2515 8.8835 47.7877 7.32237 46.883Z" fill="#FECC38"/>
<path d="M38.4712 54.7262C36.9914 54.1153 36.2875 52.4205 36.9005 50.9379C37.5125 49.4597 39.2077 48.7563 40.6883 49.3696C42.1661 49.9801 42.872 51.6792 42.2566 53.1589C41.6437 54.638 39.9509 55.3429 38.4716 54.7257" fill="#E53750"/>
<path d="M58.7902 73.3811C58.0097 73.4851 57.2899 72.9345 57.1884 72.1515C57.0845 71.3681 57.6338 70.6503 58.4172 70.5478C59.1978 70.4438 59.9175 70.9948 60.0195 71.7778C60.1229 72.5617 59.5741 73.2776 58.7902 73.3806" fill="#233D8D"/>
<path d="M47.3083 66.8567C46.124 66.6986 45.2898 65.6138 45.4455 64.4274C45.5997 63.2409 46.6886 62.4081 47.8734 62.5648C49.0576 62.7191 49.8932 63.8059 49.7352 64.9913C49.5796 66.1768 48.493 67.0134 47.3083 66.8562" fill="#26BCEC"/>
<path d="M52.8594 70.86C51.8681 70.8581 51.0622 70.055 51.0636 69.0631C51.0622 68.0698 51.8662 67.2672 52.8594 67.2663C53.8507 67.2643 54.6571 68.0713 54.6552 69.0631C54.6566 70.055 53.8526 70.86 52.8594 70.86ZM42.4228 61.4406C41.071 61.0778 40.2703 59.6902 40.6318 58.3375C40.9934 56.9877 42.3807 56.186 43.7302 56.5478C45.0806 56.9091 45.8851 58.2987 45.5202 59.6489C45.1586 61.0002 43.7723 61.8047 42.4228 61.4406ZM66.7793 78.4021C66.2717 78.6944 65.6233 78.5204 65.3292 78.0125C65.0362 77.506 65.2105 76.8553 65.7186 76.5621C66.2262 76.2688 66.875 76.4423 67.1676 76.9517C67.4607 77.4596 67.2874 78.1088 66.7798 78.4021" fill="#00ACB0"/>
<path d="M31.6108 59.4554C29.8677 58.9906 28.8319 57.1966 29.2988 55.4519C29.7662 53.7116 31.5557 52.6776 33.3008 53.1443C35.0376 53.6043 36.0749 55.4011 35.6065 57.1424C35.1401 58.889 33.351 59.9245 31.6103 59.4549" fill="#26BCEC"/>
<path d="M36.3086 66.3152C34.7206 66.1082 33.6029 64.6539 33.8108 63.063C34.0196 61.477 35.4749 60.3577 37.0633 60.5666C38.6483 60.7726 39.7699 62.2317 39.5582 63.8201C39.3489 65.4081 37.8956 66.5274 36.3076 66.3147" fill="#233D8D"/>
<path d="M1.97527 79.0727C1.24738 79.3746 0.410314 79.0296 0.109582 78.2993C-0.193066 77.5695 0.15268 76.7339 0.882004 76.432C1.60989 76.1301 2.44696 76.4751 2.74865 77.2054C3.05034 77.9356 2.70556 78.7699 1.97575 79.0722" fill="#00ACB0"/>
<path d="M12.7652 69.7416C12.0374 70.0435 11.2003 69.6985 10.8996 68.9687C10.5969 68.239 10.9427 67.4033 11.672 67.1014C12.3999 66.7995 13.2365 67.1445 13.5381 67.8753C13.8398 68.606 13.495 69.4398 12.7652 69.7421M52.8565 127.156C52.1286 127.458 51.2916 127.113 50.9908 126.383C50.6882 125.653 51.0339 124.818 51.7632 124.516C52.4911 124.214 53.3277 124.559 53.6294 125.289C53.9311 126.02 53.5863 126.854 52.8565 127.156Z" fill="#E53750"/>
<path d="M47.9816 75.7445C46.7969 75.8988 45.7103 75.067 45.5537 73.8806C45.3957 72.6946 46.2323 71.6079 47.4165 71.4526C48.6012 71.2955 49.6892 72.1292 49.8434 73.3147C49.9996 74.5001 49.1663 75.5912 47.9816 75.7445Z" fill="#FECC38"/>
<path d="M54.3789 78.1731C53.4211 78.4285 52.4346 77.8617 52.1794 76.9033C51.9208 75.9436 52.4907 74.9603 53.4494 74.7011C54.4061 74.4433 55.3936 75.0125 55.6483 75.9718C55.9069 76.9302 55.3371 77.9158 54.3793 78.1726M41.8616 71.7772C40.4618 71.7772 39.3293 70.6444 39.3293 69.2438C39.3283 67.8461 40.4618 66.7129 41.8592 66.7124C43.2565 66.7114 44.3924 67.8456 44.39 69.2443C44.39 70.6435 43.2599 71.7791 41.8616 71.7767M69.7751 81.8531C69.3609 82.2666 68.6895 82.2671 68.2743 81.8531C67.8601 81.4391 67.8606 80.7654 68.2753 80.3504C68.69 79.9355 69.3614 79.936 69.7761 80.3514C70.1898 80.7664 70.1908 81.4377 69.7751 81.8526" fill="#E53750"/>
<path d="M30.9045 72.6604C29.1006 72.6638 27.6357 71.1989 27.6357 69.3925C27.6367 67.5899 29.0977 66.1284 30.904 66.127C32.7007 66.1222 34.1675 67.5894 34.1661 69.392C34.1671 71.1999 32.7074 72.6633 30.904 72.6599" fill="#FECC38"/>
<path d="M37.2156 78.0705C35.629 78.2813 34.1728 77.1663 33.963 75.5759C33.7538 73.9899 34.8705 72.5323 36.4589 72.3224C38.044 72.1116 39.5036 73.2299 39.7105 74.8189C39.9188 76.4073 38.8045 77.8644 37.2156 78.0705Z" fill="#26BCEC"/>
<path d="M64.1345 84.061C63.5105 84.5411 62.6116 84.4251 62.1328 83.7974C61.6515 83.1707 61.7688 82.2737 62.3961 81.7936C63.0201 81.3134 63.918 81.4303 64.3978 82.0571C64.8791 82.6848 64.7618 83.5799 64.1345 84.061Z" fill="#FECC38"/>
<path d="M25.1068 95.559C24.4828 96.0391 23.5839 95.9232 23.1051 95.2955C22.6238 94.6687 22.7411 93.7717 23.3685 93.2916C23.9924 92.8115 24.8903 92.9284 25.3701 93.5551C25.8514 94.1829 25.7341 95.0779 25.1068 95.559Z" fill="#233D8D"/>
<path d="M50.931 84.155C49.8267 84.6102 48.562 84.0879 48.1037 82.983C47.6454 81.879 48.1717 80.6125 49.276 80.1559C50.3793 79.6973 51.6464 80.2206 52.1013 81.326C52.5587 82.4305 52.0362 83.6993 50.9314 84.1555" fill="#00ACB0"/>
<path d="M21.5583 62.5556C20.454 63.0108 19.1893 62.4885 18.731 61.3831C18.2713 60.2786 18.7981 59.0126 19.9029 58.556C21.0067 58.0969 22.2733 58.6207 22.7282 59.7252C23.186 60.8306 22.6631 62.0989 21.5588 62.5551M57.7382 84.8436C56.8791 85.3381 55.7796 85.0462 55.2854 84.1871C54.7873 83.3265 55.0833 82.2292 55.9424 81.7314C56.7996 81.233 57.901 81.5282 58.3952 82.3888C58.8932 83.2479 58.5977 84.3471 57.7382 84.8436ZM43.9931 81.9072C42.6407 82.27 41.2539 81.4688 40.8919 80.1161C40.5303 78.7663 41.3315 77.3781 42.6814 77.0159C44.0299 76.6532 45.4206 77.4543 45.7797 78.806C46.1427 80.1573 45.344 81.5478 43.9935 81.9072M73.5616 84.4113C73.2685 84.9183 72.6206 85.0918 72.1115 84.7995C71.6049 84.5072 71.4315 83.857 71.7236 83.3486C72.0172 82.8406 72.6661 82.6662 73.1737 82.9604C73.6813 83.2546 73.8556 83.9029 73.5616 84.4113Z" fill="#233D8D"/>
<path d="M20.839 85.5989C19.0974 86.0685 17.3035 85.0325 16.8357 83.2883C16.3712 81.5471 17.4046 79.7569 19.1486 79.2873C20.8836 78.8177 22.6798 79.8551 23.1443 81.5969C23.6136 83.3425 22.5817 85.1341 20.839 85.5979" fill="#26BCEC"/>
<path d="M41.1337 89.19C39.6559 89.8048 37.9607 89.1038 37.3458 87.6231C36.7343 86.1449 37.4358 84.4477 38.9165 83.8339C40.3924 83.2191 42.0914 83.9216 42.703 85.4032C43.3145 86.8838 42.6153 88.5796 41.1337 89.19Z" fill="#FECC38"/>
<path d="M68.6842 88.0044C68.2054 88.6302 67.3075 88.75 66.6825 88.2679C66.0552 87.7873 65.9369 86.8913 66.4182 86.265C66.8971 85.6387 67.795 85.5189 68.4209 86.0015C69.0482 86.4821 69.1655 87.3767 68.6842 88.0044Z" fill="#00ACB0"/>
<path d="M55.9548 91.5149C55.0067 92.2413 53.6495 92.064 52.9207 91.1148C52.1918 90.1674 52.3733 88.8085 53.3215 88.0807C54.2682 87.3523 55.6273 87.5296 56.3528 88.4798C57.0807 89.4286 56.9035 90.7894 55.9553 91.5158" fill="#E53750"/>
<path d="M34.1465 118.803C33.1983 119.529 31.8412 119.352 31.1123 118.403C30.383 117.455 30.564 116.096 31.5122 115.368C32.4594 114.64 33.8184 114.817 34.5434 115.767C35.2713 116.715 35.0941 118.075 34.146 118.802M62.7088 90.4173C62.0068 91.1178 60.87 91.1197 60.1694 90.4173C59.4664 89.7158 59.4678 88.5797 60.1694 87.8753C60.8685 87.1738 62.0083 87.1733 62.7084 87.8763C63.4109 88.5773 63.4104 89.7153 62.7084 90.4177M48.6731 91.1408C47.4601 91.8404 45.9133 91.4264 45.2137 90.2131C44.5145 89.0037 44.9297 87.4555 46.1394 86.756C47.348 86.0564 48.8991 86.4699 49.5959 87.6822C50.295 88.8945 49.8832 90.4436 48.6716 91.1408M77.8815 85.9016C77.7297 86.467 77.1488 86.8024 76.5813 86.6515C76.0153 86.501 75.6791 85.9184 75.8309 85.351C75.9827 84.7842 76.5646 84.4483 77.1311 84.6007C77.6971 84.754 78.0333 85.3338 77.881 85.9016" fill="#26BCEC"/>
<path d="M39.6248 97.3878C38.0636 98.2925 36.0634 97.7568 35.1607 96.1928C34.2614 94.6307 34.7968 92.6335 36.3603 91.7284C37.9138 90.8256 39.9174 91.3623 40.8162 92.9248C41.7213 94.4893 41.1878 96.4879 39.6248 97.3878Z" fill="#E53750"/>
<path d="M47.7939 98.915C46.5258 99.8925 44.707 99.6548 43.7306 98.3831C42.7561 97.1133 42.9951 95.2925 44.266 94.316C45.5331 93.3399 47.3562 93.578 48.3297 94.8517C49.3033 96.1229 49.0677 97.9423 47.7939 98.915Z" fill="#00ACB0"/>
<path d="M74.0993 90.6349C73.7991 91.3632 72.9625 91.7116 72.2336 91.4078C71.5043 91.1059 71.1576 90.2712 71.4603 89.5414C71.762 88.8131 72.5976 88.4652 73.3269 88.7681C74.0567 89.0699 74.402 89.9051 74.0993 90.6349Z" fill="#E53750"/>
<path d="M62.7117 97.3229C61.9838 98.2702 60.6267 98.4508 59.6776 97.7225C58.7285 96.9961 58.5522 95.6362 59.2801 94.6879C60.0061 93.7392 61.3647 93.5585 62.3114 94.2878C63.2596 95.0161 63.4401 96.3755 62.7117 97.3233" fill="#233D8D"/>
<path d="M68.9514 94.514C68.4544 95.3717 67.3568 95.6688 66.4986 95.1723C65.6381 94.6759 65.3455 93.5777 65.8407 92.7161C66.3349 91.8565 67.4353 91.5613 68.2935 92.0587C69.154 92.5542 69.4476 93.6534 68.9514 94.5135M55.5808 98.848C54.591 99.838 52.9901 99.838 51.9998 98.848C51.0119 97.861 51.0119 96.2572 51.9998 95.2687C52.9863 94.2797 54.5919 94.2777 55.5784 95.2687C56.5673 96.2572 56.5706 97.861 55.5808 98.848ZM82.4384 86.2229C82.4384 86.8085 81.9643 87.2833 81.3772 87.2843C80.7921 87.2843 80.3165 86.809 80.3161 86.222C80.3161 85.6345 80.7916 85.1597 81.3782 85.1602C81.9643 85.1611 82.4394 85.6345 82.4389 86.2229" fill="#FECC38"/>
<path d="M36.4762 107.225C35.2024 108.503 33.1312 108.504 31.855 107.227C30.5822 105.951 30.5812 103.884 31.8584 102.605C33.1255 101.33 35.1995 101.329 36.4723 102.606C37.7509 103.883 37.7533 105.95 36.4762 107.225Z" fill="#E53750"/>
<path d="M48.1655 109.429C47.1924 110.701 45.3746 110.943 44.1022 109.967C42.8332 108.993 42.5928 107.172 43.5683 105.9C44.5394 104.629 46.362 104.388 47.632 105.365C48.901 106.341 49.1433 108.159 48.1655 109.429ZM80.0105 91.7745C79.9085 92.5556 79.1917 93.1085 78.4087 93.0041C77.6258 92.902 77.075 92.1847 77.178 91.4017C77.281 90.6207 77.9988 90.0673 78.7822 90.1712C79.5647 90.2743 80.1135 90.9906 80.0105 91.7745Z" fill="#233D8D"/>
<path d="M70.7405 101.183C70.2817 102.287 69.0185 102.812 67.9132 102.355C66.808 101.898 66.286 100.63 66.7438 99.5259C67.1997 98.4209 68.4654 97.8953 69.5682 98.3548C70.6725 98.8119 71.1993 100.078 70.7405 101.183" fill="#26BCEC"/>
<path d="M76.0407 96.8536C75.7831 97.8119 74.7994 98.3821 73.8427 98.1248C72.8825 97.8694 72.316 96.8838 72.5712 95.924C72.827 94.9657 73.8139 94.3955 74.7707 94.6542C75.7299 94.9091 76.2978 95.8953 76.0407 96.8536ZM22.3796 121.184C22.1219 122.143 21.1379 122.713 20.1816 122.455C19.2209 122.199 18.6539 121.214 18.9097 120.254C19.1659 119.296 20.1523 118.725 21.1096 118.983C22.0688 119.239 22.6372 120.224 22.3805 121.184M64.247 104.503C63.5469 105.715 62.0011 106.13 60.7881 105.431C59.578 104.733 59.1633 103.183 59.862 101.973C60.5592 100.762 62.1093 100.345 63.3185 101.046C64.5291 101.746 64.9466 103.294 64.2465 104.503M86.9245 85.3526C87.0754 85.9181 86.7401 86.5002 86.1736 86.6526C85.6086 86.804 85.0263 86.4672 84.874 85.9003C84.7222 85.3339 85.0583 84.7518 85.6258 84.6008C86.1918 84.4494 86.7732 84.7843 86.9245 85.3522" fill="#00ACB0"/>
<path d="M59.533 114.44C58.6336 116.004 56.6329 116.541 55.0699 115.638C53.5106 114.735 52.9758 112.739 53.8775 111.172C54.773 109.613 56.7756 109.075 58.3358 109.979C59.9003 110.881 60.4371 112.878 59.533 114.44Z" fill="#26BCEC"/>
<path d="M67.3707 111.675C66.7601 113.156 65.0663 113.86 63.5852 113.247C62.1079 112.635 61.4049 110.939 62.0178 109.457C62.627 107.978 64.3251 107.273 65.8043 107.888C67.2826 108.501 67.987 110.196 67.3702 111.676" fill="#233D8D"/>
<path d="M86.0147 91.3441C86.1181 92.1252 85.5684 92.8449 84.7854 92.9464C84.0029 93.0504 83.2865 92.5008 83.1831 91.7169C83.0801 90.9359 83.6304 90.2157 84.4138 90.1141C85.1963 90.0106 85.9127 90.5597 86.0151 91.3436" fill="#26BCEC"/>
<path d="M79.4948 102.833C79.3368 104.018 78.2526 104.852 77.0669 104.697C75.8812 104.542 75.0489 103.453 75.205 102.268C75.3602 101.082 76.4468 100.247 77.6305 100.405C78.8157 100.56 79.6514 101.647 79.4948 102.832" fill="#FECC38"/>
<path d="M83.4943 97.278C83.4929 98.2699 82.6898 99.0763 81.6995 99.0749C80.7063 99.0768 79.9038 98.2718 79.9023 97.278C79.9014 96.2861 80.7068 95.4792 81.6981 95.4811C82.6908 95.4802 83.4953 96.2852 83.4943 97.278ZM74.0807 107.721C73.7181 109.074 72.3313 109.875 70.9795 109.513C69.631 109.152 68.8293 107.763 69.1914 106.413C69.5519 105.062 70.9407 104.258 72.2897 104.622C73.641 104.984 74.4446 106.371 74.0807 107.721ZM91.0323 83.3501C91.3244 83.858 91.151 84.5058 90.643 84.8C90.1368 85.0933 89.487 84.9188 89.1934 84.4109C88.9003 83.903 89.0737 83.2537 89.5827 82.961C90.0903 82.6687 90.7387 82.8412 91.0318 83.3505" fill="#E53750"/>
<path d="M72.0972 118.54C71.6327 120.284 69.8398 121.321 68.0962 120.853C66.3569 120.386 65.3235 118.595 65.7904 116.849C66.2501 115.111 68.0459 114.073 69.7861 114.541C71.5311 115.008 72.566 116.798 72.0967 118.54" fill="#FECC38"/>
<path d="M78.9532 113.84C78.7463 115.428 77.2929 116.548 75.7031 116.339C74.118 116.13 72.9998 114.673 73.2081 113.084C73.415 111.497 74.8727 110.375 76.4597 110.587C78.0472 110.797 79.1653 112.25 78.9532 113.84" fill="#26BCEC"/>
<path d="M91.7027 89.3732C92.0044 90.1016 91.6596 90.9387 90.9298 91.2396C90.2005 91.5424 89.3658 91.1965 89.0636 90.4667C88.762 89.7384 89.1077 88.9013 89.837 88.5994C90.5668 88.2966 91.4006 88.6425 91.7027 89.3728" fill="#FECC38"/>
<path d="M88.3765 102.159C88.5307 103.345 87.6993 104.431 86.5137 104.589C85.3284 104.747 84.2423 103.909 84.0872 102.725C83.9301 101.539 84.7634 100.45 85.9481 100.296C87.1324 100.14 88.2213 100.973 88.376 102.159" fill="#00ACB0"/>
<path d="M90.8034 95.7574C91.0586 96.7167 90.4921 97.7029 89.5344 97.9587C88.5752 98.2175 87.5925 97.6473 87.3335 96.688C87.0758 95.7306 87.6457 94.7426 88.6039 94.4886C89.5617 94.2298 90.5467 94.7986 90.8034 95.7584M84.4114 108.283C84.4114 109.683 83.2793 110.816 81.8796 110.816C80.4832 110.817 79.3502 109.684 79.3502 108.285C79.3502 106.888 80.4832 105.75 81.8805 105.753C83.2789 105.753 84.4138 106.885 84.4124 108.283M94.4821 80.3522C94.8949 80.7667 94.8954 81.4385 94.4811 81.8539C94.0674 82.2679 93.3941 82.2679 92.9799 81.8539C92.5652 81.438 92.5656 80.7662 92.9808 80.3513C93.396 79.9373 94.0669 79.9363 94.4816 80.3522" fill="#233D8D"/>
<path d="M85.2944 119.246C85.2973 121.051 83.8339 122.517 82.0285 122.517C80.227 122.515 78.766 121.053 78.765 119.246C78.7593 117.448 80.2256 115.981 82.0276 115.983C83.8344 115.981 85.2968 117.441 85.2935 119.246" fill="#00ACB0"/>
<path d="M90.7009 112.932C90.9116 114.519 89.7973 115.976 88.2079 116.187C86.6228 116.396 85.1661 115.278 84.9563 113.689C84.7456 112.103 85.8633 110.642 87.4513 110.435C89.0387 110.227 90.495 111.342 90.7009 112.932Z" fill="#FECC38"/>
<path d="M96.6873 85.9965C97.1671 86.6208 97.0513 87.5202 96.4239 87.9994C95.7976 88.4809 94.9011 88.3635 94.4213 87.7358C93.9415 87.111 94.0583 86.2121 94.6856 85.732C95.312 85.2509 96.2065 85.3687 96.6873 85.9955" fill="#00ACB0"/>
<path d="M96.7821 99.2071C97.2371 100.313 96.7151 101.578 95.6108 102.037C94.507 102.497 93.2418 101.969 92.7854 100.864C92.3267 99.76 92.8501 98.4931 93.9539 98.037C95.0587 97.5798 96.3262 98.1021 96.7821 99.2071Z" fill="#E53750"/>
<path d="M97.4703 92.3959C97.9649 93.256 97.6724 94.3557 96.8142 94.8502C95.9542 95.3485 94.8575 95.0528 94.3595 94.1937C93.8629 93.335 94.1574 92.2329 95.017 91.7389C95.8756 91.2406 96.9742 91.5362 97.4703 92.3959ZM94.5362 106.149C94.8982 107.503 94.0976 108.89 92.7452 109.253C91.3972 109.615 90.0094 108.814 89.6469 107.462C89.2854 106.113 90.086 104.721 91.4369 104.362C92.7874 103.999 94.1771 104.798 94.5367 106.149" fill="#26BCEC"/>
<path d="M98.2245 116.511C98.6938 118.254 97.6594 120.049 95.9163 120.516C94.1756 120.982 92.3861 119.948 91.9177 118.202C91.4475 116.467 92.4842 114.67 94.2249 114.206C95.97 113.736 97.7605 114.768 98.2245 116.512" fill="#E53750"/>
<path d="M101.814 109.011C102.428 110.49 101.727 112.187 100.247 112.801C98.7699 113.414 97.0738 112.711 96.4603 111.23C95.8474 109.754 96.5484 108.053 98.0291 107.441C99.5088 106.829 101.203 107.529 101.814 109.011Z" fill="#00ACB0"/>
<path d="M100.629 81.4434C101.254 81.9226 101.374 82.8205 100.892 83.4463C100.412 84.074 99.5165 84.1919 98.8906 83.7108C98.2647 83.2316 98.1455 82.3332 98.6272 81.7069C99.1075 81.0792 100.002 80.9618 100.629 81.4434Z" fill="#E53750"/>
<path d="M104.138 94.1806C104.864 95.1294 104.686 96.4873 103.738 97.2166C102.791 97.9459 101.432 97.7643 100.705 96.8156C99.9772 95.8668 100.154 94.5079 101.104 93.7824C102.052 93.0541 103.411 93.2314 104.138 94.1801" fill="#233D8D"/>
<path d="M103.041 87.4224C103.741 88.1249 103.743 89.2624 103.041 89.963C102.34 90.6673 101.204 90.6654 100.501 89.9639C99.7985 89.2634 99.7981 88.123 100.501 87.4229C101.202 86.7195 102.339 86.72 103.041 87.4229M103.764 101.467C104.463 102.681 104.049 104.228 102.837 104.928C101.628 105.628 100.08 105.212 99.381 104.002C98.6818 102.792 99.0956 101.24 100.307 100.543C101.519 99.8434 103.066 100.255 103.764 101.468" fill="#FECC38"/>
<path d="M110.007 110.52C110.911 112.082 110.376 114.084 108.812 114.987C107.251 115.887 105.256 115.352 104.352 113.787C103.449 112.232 103.985 110.228 105.547 109.328C107.111 108.423 109.107 108.956 110.007 110.521" fill="#233D8D"/>
<path d="M111.533 102.347C112.51 103.617 112.272 105.436 111 106.413C109.731 107.387 107.912 107.149 106.937 105.876C105.961 104.609 106.199 102.784 107.472 101.811C108.742 100.837 110.56 101.073 111.532 102.347" fill="#E53750"/>
<path d="M109.942 87.4196C110.889 88.1479 111.069 89.5054 110.341 90.4556C109.615 91.4058 108.256 91.5816 107.308 90.8542C106.36 90.1273 106.18 88.767 106.908 87.8201C107.635 86.8714 108.994 86.6903 109.942 87.4191" fill="#26BCEC"/>
<path d="M111.466 94.5546C112.456 95.5455 112.456 97.1478 111.466 98.1387C110.479 99.1268 108.877 99.1268 107.889 98.1387C106.9 97.1507 106.898 95.5441 107.889 94.5575C108.877 93.5675 110.479 93.5656 111.466 94.5551" fill="#00ACB0"/>
<path d="M119.837 101.683C121.115 102.957 121.116 105.029 119.839 106.307C118.565 107.58 116.499 107.58 115.22 106.303C113.946 105.034 113.946 102.958 115.221 101.686C116.498 100.406 118.564 100.404 119.837 101.682" fill="#26BCEC"/>
<path d="M119.198 93.3919C120.469 94.3646 120.711 96.184 119.735 97.4572C118.762 98.727 116.942 98.9675 115.671 97.9919C114.401 97.0192 114.159 95.196 115.136 93.9252C116.111 92.6554 117.929 92.4134 119.198 93.3919Z" fill="#233D8D"/>
<path d="M92.9813 55.6306C93.3955 55.2171 94.0669 55.2166 94.4821 55.6306C94.8963 56.0451 94.8958 56.7183 94.4821 57.1333C94.0664 57.5483 93.395 57.5478 92.9808 57.1323C92.5666 56.7174 92.5656 56.0461 92.9808 55.6311" fill="#FECC38"/>
<path d="M98.6219 53.423C99.2459 52.9438 100.145 53.0598 100.624 53.6875C101.105 54.3137 100.988 55.2103 100.36 55.6904C99.7363 56.171 98.8384 56.0546 98.3586 55.4268C97.8773 54.7991 97.9946 53.9045 98.6219 53.4239" fill="#233D8D"/>
<path d="M89.1944 53.0721C89.4874 52.5651 90.1358 52.3917 90.6444 52.684C91.151 52.9762 91.3244 53.6265 91.0323 54.1349C90.7387 54.6428 90.0899 54.8172 89.5823 54.523C89.0747 54.2288 88.9003 53.5805 89.1944 53.0721Z" fill="#00ACB0"/>
<path d="M94.0722 49.4795C94.551 48.8537 95.4485 48.7339 96.0739 49.216C96.7012 49.6966 96.819 50.5926 96.3382 51.2189C95.8593 51.8447 94.9614 51.9645 94.3355 51.4824C93.7082 51.0018 93.5909 50.1072 94.0722 49.4795Z" fill="#26BCEC"/>
<path d="M106.802 45.9689C107.75 45.2424 109.107 45.4197 109.836 46.369C110.565 47.3163 110.384 48.6757 109.435 49.403C108.488 50.1314 107.129 49.9541 106.404 49.0039C105.676 48.0551 105.853 46.6943 106.802 45.9679" fill="#FECC38"/>
<path d="M100.048 47.0662C100.75 46.3656 101.886 46.3637 102.587 47.0662C103.29 47.7672 103.289 48.9038 102.588 49.6077C101.887 50.3101 100.748 50.3106 100.048 49.6077C99.3451 48.9062 99.3455 47.7677 100.048 47.0662" fill="#E53750"/>
</svg>
