<svg width="272" height="138" viewBox="0 0 272 138" fill="none" xmlns="http://www.w3.org/2000/svg">
<g clip-path="url(#clip0_1116_8899)">
<path d="M84.9847 51.8688C85.1365 51.3034 85.7174 50.968 86.2848 51.1185C86.8499 51.2699 87.186 51.8526 87.0347 52.4194C86.8815 52.9867 86.3006 53.3226 85.7336 53.1698C85.1676 53.0165 84.8324 52.4367 84.9847 51.8688Z" fill="#E53750"/>
<path d="M115.072 38.8558C116.341 37.8783 118.159 38.1164 119.136 39.3886C120.11 40.6584 119.871 42.4792 118.6 43.4548C117.333 44.4309 115.51 44.1927 114.536 42.9196C113.562 41.6488 113.798 39.8299 115.072 38.8563" fill="#26BCEC"/>
<path d="M88.7668 47.1359C89.0676 46.4075 89.9037 46.0587 90.6325 46.363C91.3618 46.6649 91.7086 47.4986 91.4059 48.2293C91.1042 48.9577 90.2686 49.3051 89.5393 49.0022C88.809 48.7004 88.4637 47.8666 88.7663 47.1359" fill="#FECC38"/>
<path d="M100.154 40.4474C100.882 39.5001 102.239 39.3195 103.189 40.0483C104.138 40.7742 104.315 42.1341 103.586 43.0824C102.861 44.0311 101.502 44.2118 100.555 43.4825C99.6066 42.7541 99.4261 41.3947 100.154 40.4469" fill="#00ACB0"/>
<path d="M93.9147 43.2572C94.4118 42.3985 95.5093 42.1024 96.3665 42.5988C97.2285 43.0952 97.5206 44.1935 97.0255 45.0546C96.5308 45.9142 95.4298 46.2093 94.5727 45.7124C93.7121 45.217 93.4186 44.1178 93.9147 43.2577M107.285 38.9231C108.276 37.9332 109.876 37.9332 110.866 38.9231C111.854 39.9102 111.854 41.514 110.866 42.5025C109.88 43.492 108.274 43.4944 107.288 42.5025C106.299 41.514 106.296 39.9102 107.285 38.9231ZM80.4268 51.5477C80.4268 50.9622 80.9018 50.4873 81.4889 50.4864C82.0731 50.4864 82.5491 50.9622 82.5496 51.5492C82.5496 52.1366 82.0741 52.611 81.4875 52.6105C80.9013 52.6105 80.4263 52.1362 80.4268 51.5477Z" fill="#233D8D"/>
<path d="M114.409 30.5463C115.683 29.2679 117.753 29.267 119.03 30.5444C120.303 31.82 120.303 33.8871 119.025 35.1664C117.759 36.441 115.685 36.441 114.412 35.1655C113.133 33.888 113.131 31.8209 114.409 30.5463" fill="#00ACB0"/>
<path d="M106.123 31.1865C107.096 29.9148 108.914 29.6723 110.186 30.6489C111.455 31.6225 111.694 33.4424 110.72 34.7151C109.749 35.9863 107.926 36.2283 106.656 35.2508C105.387 34.2752 105.146 32.4563 106.123 31.1865Z" fill="#FECC38"/>
<path d="M82.8561 45.9962C82.9581 45.2152 83.675 44.6617 84.4579 44.7667C85.2409 44.8687 85.7916 45.5861 85.6886 46.369C85.5857 47.1501 84.8678 47.7035 84.0844 47.599C83.3019 47.496 82.7531 46.7797 82.8561 45.9962Z" fill="#00ACB0"/>
<path d="M92.1256 36.5873C92.5844 35.4838 93.8477 34.9581 94.9534 35.4157C96.0581 35.8724 96.5806 37.1407 96.1228 38.2447C95.6664 39.3497 94.4008 39.8758 93.2974 39.4163C92.1936 38.9582 91.6669 37.6913 92.1256 36.5873Z" fill="#E53750"/>
<path d="M86.8245 40.9174C87.0831 39.9591 88.0672 39.3889 89.0235 39.6462C89.9836 39.9016 90.5502 40.8873 90.2949 41.847C90.0397 42.8054 89.0522 43.3756 88.0954 43.1168C87.1363 42.8619 86.5678 41.8758 86.825 40.9174M98.6192 33.268C99.3193 32.0557 100.866 31.6408 102.078 32.3404C103.288 33.0385 103.702 34.5876 103.004 35.7985C102.306 37.0089 100.756 37.4262 99.5467 36.7247C98.3366 36.0251 97.9186 34.4779 98.6192 33.268ZM75.9416 52.4184C75.7908 51.853 76.126 51.2708 76.6925 51.1179C77.2576 50.966 77.8399 51.3029 77.9922 51.8702C78.144 52.4366 77.8078 53.0183 77.2403 53.1697C76.6753 53.3211 76.093 52.9862 75.9416 52.4184Z" fill="#26BCEC"/>
<path d="M103.333 23.3307C104.232 21.7667 106.233 21.2296 107.796 22.1328C109.355 23.0351 109.89 25.0318 108.988 26.5987C108.094 28.1579 106.091 28.695 104.531 27.7918C102.966 26.8895 102.429 24.8928 103.334 23.3307" fill="#E53750"/>
<path d="M95.4955 26.0954C96.106 24.6148 97.7998 23.9104 99.281 24.5237C100.758 25.1361 101.461 26.8323 100.848 28.3139C100.239 29.7926 98.5411 30.4989 97.0619 29.8832C95.5836 29.2699 94.8796 27.5755 95.4959 26.0954" fill="#00ACB0"/>
<path d="M76.852 46.4265C76.7476 45.6454 77.2973 44.9257 78.0808 44.8241C78.8647 44.7202 79.5811 45.2698 79.685 46.0537C79.787 46.8347 79.2368 47.5549 78.4543 47.657C77.6704 47.7605 76.9554 47.2104 76.852 46.427" fill="#E53750"/>
<path d="M83.3718 34.9383C83.5299 33.7533 84.6136 32.9186 85.7997 33.0744C86.9849 33.2286 87.8177 34.3183 87.6611 35.5037C87.5064 36.6887 86.4199 37.5244 85.2356 37.3662C84.0509 37.211 83.2148 36.1233 83.3718 34.9383Z" fill="#233D8D"/>
<path d="M79.3718 40.4928C79.3733 39.501 80.1763 38.6945 81.1666 38.696C82.1603 38.6945 82.9624 39.499 82.9638 40.4928C82.9653 41.4847 82.1593 42.2916 81.1681 42.2897C80.1754 42.2907 79.3718 41.4861 79.3718 40.4928ZM88.7855 30.0499C89.1475 28.6967 90.5344 27.896 91.8862 28.2578C93.2352 28.6191 94.0363 30.0077 93.6748 31.358C93.3142 32.7092 91.9255 33.5133 90.5765 33.1491C89.2251 32.7869 88.4216 31.4002 88.7855 30.0499ZM71.8339 54.4208C71.5418 53.9129 71.7151 53.2645 72.2232 52.9703C72.7294 52.678 73.3787 52.852 73.6723 53.3599C73.9653 53.8678 73.792 54.5171 73.2829 54.8098C72.7753 55.1021 72.1265 54.9296 71.8334 54.4203" fill="#FECC38"/>
<path d="M90.769 19.2311C91.2335 17.487 93.0264 16.4505 94.77 16.9177C96.5092 17.3854 97.5426 19.176 97.0757 20.9221C96.616 22.66 94.8202 23.6984 93.08 23.2298C91.3345 22.7626 90.2997 20.9734 90.769 19.2311Z" fill="#233D8D"/>
<path d="M83.913 23.9307C84.1198 22.3427 85.5732 21.2234 87.1631 21.4323C88.7482 21.6412 89.8663 23.0974 89.6571 24.6873C89.4511 26.2743 87.9934 27.3955 86.4055 27.1837C84.819 26.9744 83.7008 25.5206 83.913 23.9307Z" fill="#E53750"/>
<path d="M71.1634 48.3977C70.8617 47.6694 71.2065 46.8323 71.9363 46.5314C72.6657 46.2281 73.5003 46.5736 73.802 47.3028C74.1037 48.0312 73.7589 48.8688 73.0286 49.1706C72.2998 49.4735 71.4661 49.1275 71.1639 48.3973" fill="#233D8D"/>
<path d="M74.4887 35.6116C74.3355 34.4267 75.1668 33.3394 76.3525 33.1823C77.5372 33.0241 78.6233 33.8612 78.7789 35.0472C78.9351 36.2317 78.1018 37.3208 76.9171 37.4746C75.7323 37.6308 74.6429 36.7976 74.4887 35.6116Z" fill="#26BCEC"/>
<path d="M72.0628 42.0134C71.8075 41.055 72.374 40.0679 73.3318 39.8125C74.291 39.5538 75.2736 40.124 75.5327 41.0833C75.7903 42.0402 75.2204 43.0287 74.2627 43.2827C73.304 43.5414 72.3194 42.9726 72.0628 42.0134ZM78.4538 29.4879C78.4538 28.0873 79.5868 26.9546 80.9861 26.9546C82.383 26.9536 83.5155 28.0873 83.516 29.486C83.5174 30.8833 82.3839 32.0208 80.9861 32.0175C79.5878 32.0175 78.4528 30.8866 78.4548 29.4875M68.3841 57.4186C67.9708 57.0041 67.9708 56.3323 68.385 55.9169C68.7983 55.5024 69.4711 55.5024 69.8858 55.9169C70.3005 56.3328 70.3 57.0046 69.8848 57.419C69.4701 57.834 68.7988 57.8345 68.3841 57.4186Z" fill="#00ACB0"/>
<path d="M77.5717 18.5247C77.5688 16.7197 79.0323 15.2534 80.8376 15.2534C82.6392 15.2549 84.1002 16.7168 84.1016 18.5242C84.1064 20.322 82.6401 21.7897 80.8381 21.7873C79.0313 21.7888 77.5688 20.3283 77.5712 18.5242" fill="#26BCEC"/>
<path d="M72.1653 24.8401C71.9545 23.2522 73.0689 21.795 74.6583 21.5847C76.2433 21.3758 77.7001 22.4932 77.9098 24.0826C78.1205 25.6677 77.0028 27.1286 75.4149 27.3361C73.8274 27.5441 72.3716 26.4295 72.1653 24.8401Z" fill="#233D8D"/>
<path d="M54.4134 9.81683C54.2027 8.22935 55.3171 6.77221 56.9064 6.56233C58.4915 6.35294 59.9482 7.47035 60.158 9.05975C60.3687 10.6458 59.251 12.1063 57.6631 12.3133C56.0756 12.5217 54.6198 11.4067 54.4134 9.81683Z" fill="#00ACB0"/>
<path d="M66.1789 51.7742C65.699 51.1499 65.8149 50.2514 66.4422 49.7713C67.0686 49.2902 67.9651 49.4071 68.4449 50.0349C68.9238 50.6597 68.8074 51.5586 68.1801 52.0387C67.5537 52.5198 66.6592 52.4019 66.1784 51.7752" fill="#26BCEC"/>
<path d="M66.0845 38.5637C65.6286 37.4583 66.1515 36.1928 67.2558 35.7342C68.3596 35.2742 69.6248 35.8013 70.0812 36.9068C70.5399 38.0108 70.0165 39.2786 68.9118 39.7338C67.808 40.1914 66.5404 39.6687 66.0845 38.5637Z" fill="#FECC38"/>
<path d="M32.277 17.635C31.8221 16.5301 32.3441 15.2646 33.4484 14.806C34.5522 14.346 35.8173 14.8731 36.2737 15.9781C36.7325 17.0821 36.2091 18.3499 35.1053 18.8051C34.0005 19.2627 32.7329 18.74 32.277 17.635ZM37.6897 136.264C37.2348 135.159 37.7568 133.893 38.8611 133.435C39.9653 132.976 41.2305 133.502 41.6874 134.607C42.1456 135.711 41.6222 136.978 40.518 137.433C39.4137 137.891 38.1461 137.369 37.6902 136.263" fill="#233D8D"/>
<path d="M65.3959 45.3749C64.9017 44.5153 65.1938 43.4151 66.052 42.9206C66.912 42.4223 68.0086 42.7179 68.5071 43.578C69.0033 44.4357 68.7083 45.5378 67.8487 46.0323C66.9901 46.5307 65.892 46.235 65.3959 45.3749ZM47.3199 2.9835C46.8257 2.12388 47.1178 1.02371 47.9759 0.52921C48.836 0.0308771 49.9326 0.327003 50.4311 1.18663C50.9277 2.04434 50.6322 3.14642 49.7731 3.64092C48.9145 4.13925 47.816 3.84361 47.3199 2.9835ZM68.3304 31.6214C67.9679 30.2682 68.7686 28.8805 70.1205 28.5183C71.469 28.156 72.8567 28.9572 73.2188 30.3085C73.5808 31.6578 72.7801 33.0493 71.4297 33.4087C70.0793 33.7714 68.6896 32.9726 68.33 31.6214M65.8274 61.208C65.3207 60.9148 65.1474 60.266 65.4395 59.7571C65.7316 59.2501 66.3819 59.0767 66.8895 59.369C67.3981 59.6627 67.5719 60.312 67.2774 60.8199C66.9843 61.3278 66.3369 61.5022 65.8278 61.208" fill="#E53750"/>
<path d="M64.6417 21.2596C64.1724 19.5174 65.2067 17.7219 66.9508 17.2547C68.6905 16.789 70.4801 17.8225 70.9484 19.5681C71.4177 21.3037 70.3814 23.101 68.6403 23.5658C66.8957 24.0354 65.1052 23.0033 64.6417 21.2596Z" fill="#FECC38"/>
<path d="M61.053 28.7597C60.4386 27.281 61.1382 25.5848 62.6189 24.9695C64.0962 24.3576 65.7919 25.0596 66.4054 26.5412C67.0198 28.018 66.3182 29.7181 64.8371 30.33C63.3573 30.9419 61.6631 30.2423 61.053 28.7597Z" fill="#26BCEC"/>
<path d="M62.2377 56.3274C61.6118 55.8483 61.4921 54.9503 61.9743 54.3245C62.4542 53.6968 63.3497 53.5789 63.976 54.06C64.601 54.5392 64.7207 55.4376 64.2394 56.0639C63.7581 56.6916 62.8641 56.809 62.2377 56.3274Z" fill="#FECC38"/>
<path d="M58.729 43.5902C58.0026 42.6415 58.1797 41.284 59.1284 40.5547C60.0756 39.8254 61.4342 40.0066 62.1611 40.9553C62.889 41.9041 62.7118 43.2635 61.7627 43.9894C60.8145 44.7177 59.4545 44.5404 58.7285 43.5917" fill="#00ACB0"/>
<path d="M59.8256 50.348C59.1255 49.6456 59.1236 48.508 59.8256 47.8075C60.5262 47.1031 61.6621 47.105 62.3656 47.8065C63.0676 48.5071 63.0676 49.6475 62.3656 50.3475C61.6645 51.0509 60.5267 51.0505 59.8256 50.3475" fill="#233D8D"/>
<path d="M21.2811 36.5653C20.581 35.8628 20.5791 34.7253 21.2811 34.0248C21.9817 33.3204 23.1176 33.3223 23.8211 34.0238C24.5231 34.7243 24.5236 35.8652 23.8211 36.5648C23.12 37.2682 21.9822 37.2682 21.2811 36.5653Z" fill="#E53750"/>
<path d="M59.1025 36.3033C58.4034 35.09 58.8171 33.5433 60.0296 32.8422C61.2383 32.1427 62.786 32.5581 63.4852 33.7689C64.1843 34.9784 63.7706 36.5304 62.559 37.2276C61.3475 37.9272 59.7998 37.5151 59.1025 36.3028M64.3381 65.53C63.773 65.3781 63.4378 64.7969 63.5886 64.2291C63.7395 63.6637 64.3223 63.3273 64.8888 63.4787C65.4553 63.6311 65.791 64.2128 65.6382 64.7801C65.4859 65.3465 64.9055 65.6824 64.3381 65.53Z" fill="#233D8D"/>
<path d="M52.86 27.2504C51.9549 25.6884 52.4903 23.6864 54.0538 22.7832C55.6139 21.8833 57.6099 22.419 58.5145 23.9835C59.4172 25.5379 58.8813 27.5427 57.3192 28.4426C55.7552 29.3473 53.7593 28.814 52.8595 27.2495" fill="#00ACB0"/>
<path d="M51.3328 35.4239C50.3569 34.1541 50.5939 32.3352 51.8653 31.3577C53.1343 30.3835 54.9541 30.6226 55.9295 31.8943C56.9045 33.1622 56.667 34.9864 55.3941 35.9605C54.1251 36.9347 52.3059 36.6984 51.3328 35.4239Z" fill="#FECC38"/>
<path d="M59.6077 61.7458C58.8799 61.4449 58.5317 60.6083 58.8353 59.879C59.137 59.1492 59.9717 58.8023 60.7005 59.1051C61.4284 59.406 61.7761 60.2427 61.4734 60.9724C61.1717 61.7027 60.3385 62.0477 59.6082 61.7453" fill="#00ACB0"/>
<path d="M52.9241 50.3513C51.9774 49.6229 51.7968 48.265 52.5252 47.3153C53.2512 46.3651 54.6102 46.1883 55.5579 46.9176C56.5061 47.6435 56.6866 49.0029 55.9578 49.9507C55.2299 50.8994 53.8713 51.0801 52.9241 50.3513Z" fill="#E53750"/>
<path d="M55.7322 56.5946C54.8741 56.0973 54.5781 54.999 55.0742 54.1413C55.5699 53.2788 56.6675 52.9865 57.528 53.482C58.3871 53.977 58.6821 55.0786 58.1841 55.9363C57.6894 56.7973 56.5913 57.0911 55.7322 56.5946ZM51.4003 43.2163C50.4105 42.2244 50.4105 40.6231 51.4003 39.6321C52.3868 38.6441 53.9896 38.6441 54.9775 39.6321C55.9659 40.6202 55.9688 42.2264 54.9775 43.2134C53.9896 44.2029 52.3868 44.2053 51.4003 43.2158M64.0177 70.0909C63.4325 70.0909 62.9579 69.6155 62.957 69.0281C62.956 68.4435 63.432 67.9672 64.0182 67.9667C64.6053 67.9667 65.0798 68.4425 65.0789 69.0295C65.0789 69.6165 64.6048 70.0913 64.0177 70.0909Z" fill="#26BCEC"/>
<path d="M40.2814 31.797C39.0042 30.5224 39.0028 28.4505 40.2795 27.173C41.5542 25.8999 43.6201 25.8999 44.8987 27.1778C46.1725 28.4452 46.1725 30.5205 44.8973 31.7941C43.6206 33.0735 41.5547 33.0749 40.2809 31.797" fill="#E53750"/>
<path d="M43.6684 44.3788C42.3975 43.4061 42.1552 41.5867 43.1311 40.3136C44.1047 39.0438 45.9239 38.8042 47.1953 39.7793C48.4653 40.751 48.7071 42.5747 47.7302 43.8455C46.7553 45.1153 44.9384 45.3573 43.6684 44.3788Z" fill="#00ACB0"/>
<path d="M58.4695 67.6606C57.6889 67.5581 57.1358 66.8403 57.2407 66.0573C57.3427 65.2739 58.0595 64.7228 58.842 64.8259C59.6226 64.9289 60.1752 65.6472 60.0713 66.4311C59.9683 67.214 59.2524 67.7636 58.4695 67.6606Z" fill="#E53750"/>
<path d="M60.8696 79.3598C60.1417 79.6617 59.3046 79.3167 59.0039 78.5864C58.7012 77.8566 59.047 77.021 59.7758 76.7191C60.5037 76.4172 61.3403 76.7622 61.642 77.4925C61.9446 78.2227 61.5989 79.057 60.8691 79.3593" fill="#26BCEC"/>
<path d="M49.0663 58.3853C47.9635 57.9262 47.4381 56.6622 47.8955 55.5558C48.3513 54.4503 49.6184 53.9276 50.7222 54.3856C51.826 54.8418 52.3519 56.1087 51.8926 57.2127C51.4358 58.3172 50.1696 58.8443 49.0663 58.3853Z" fill="#233D8D"/>
<path d="M53.3934 63.6888C52.4357 63.4301 51.8658 62.4463 52.1235 61.4894C52.3787 60.5287 53.3637 59.9619 54.3229 60.2168C55.2807 60.4722 55.8505 61.4597 55.5919 62.4176C55.3367 63.3773 54.3517 63.9461 53.3929 63.6883" fill="#FECC38"/>
<path d="M34.205 48.003C32.9934 47.3019 32.5787 45.7542 33.2783 44.5415C33.9756 43.3306 35.5233 42.9161 36.7339 43.6148C37.9435 44.3129 38.3606 45.864 37.6596 47.0743C36.9604 48.2852 35.4136 48.7035 34.2045 48.0025" fill="#233D8D"/>
<path d="M64.8873 74.5785C64.3223 74.7294 63.7404 74.394 63.5882 73.8271C63.4364 73.2617 63.7725 72.6791 64.339 72.5272C64.906 72.3753 65.4874 72.7121 65.6387 73.2795C65.7891 73.8458 65.4543 74.428 64.8869 74.579M7.43213 47.1701C5.86909 46.2703 5.33227 44.2688 6.23494 42.7043C7.13666 41.1441 9.13213 40.6094 10.698 41.5121C12.2563 42.4067 12.7931 44.4111 11.8904 45.9717C10.9882 47.5386 8.99325 48.0748 7.43213 47.1701Z" fill="#FECC38"/>
<path d="M38.5809 55.0133C37.1012 54.4024 36.3972 52.7076 37.0102 51.225C37.6222 49.7468 39.3174 49.0434 40.7981 49.6567C42.2759 50.2672 42.9817 51.9663 42.3664 53.446C41.7534 54.9252 40.0606 55.63 38.5814 55.0128" fill="#E53750"/>
<path d="M58.9 73.6682C58.1194 73.7722 57.3997 73.2216 57.2981 72.4386C57.1942 71.6552 57.7435 70.9374 58.5269 70.8349C59.3075 70.7309 60.0272 71.2819 60.1292 72.0649C60.2327 72.8488 59.6839 73.5647 58.9 73.6677" fill="#233D8D"/>
<path d="M47.418 67.1438C46.2338 66.9857 45.3996 65.9009 45.5552 64.7145C45.7094 63.528 46.7984 62.6953 47.9831 62.8519C49.1673 63.0062 50.003 64.093 49.8449 65.2784C49.6893 66.4639 48.6028 67.3005 47.418 67.1434" fill="#26BCEC"/>
<path d="M52.9691 71.1471C51.9779 71.1452 51.1719 70.3421 51.1734 69.3502C51.1719 68.3569 51.976 67.5543 52.9691 67.5534C53.9604 67.5514 54.7668 68.3584 54.7649 69.3502C54.7664 70.3421 53.9623 71.1471 52.9691 71.1471ZM42.5326 61.7277C41.1807 61.3649 40.38 59.9773 40.7416 58.6246C41.1031 57.2748 42.4904 56.4731 43.8399 56.8349C45.1903 57.1962 45.9948 58.5858 45.6299 59.9361C45.2684 61.2873 43.882 62.0918 42.5326 61.7277ZM66.889 78.6892C66.3814 78.9815 65.733 78.8076 65.439 78.2996C65.1459 77.7932 65.3202 77.1425 65.8283 76.8492C66.3359 76.556 66.9848 76.7294 67.2774 77.2388C67.5705 77.7467 67.3971 78.396 66.8895 78.6892" fill="#00ACB0"/>
<path d="M31.7206 59.7425C29.9775 59.2777 28.9417 57.4837 29.4086 55.739C29.8759 53.9987 31.6655 52.9647 33.4105 53.4314C35.1474 53.8914 36.1846 55.6883 35.7163 57.4295C35.2498 59.1761 33.4608 60.2116 31.7201 59.742" fill="#26BCEC"/>
<path d="M36.4183 66.6023C34.8304 66.3953 33.7127 64.941 33.9205 63.3502C34.1293 61.7641 35.5846 60.6448 37.173 60.8537C38.7581 61.0597 39.8796 62.5188 39.6679 64.1072C39.4587 65.6952 38.0053 66.8145 36.4173 66.6018" fill="#233D8D"/>
<path d="M2.08501 79.3598C1.35712 79.6617 0.520056 79.3167 0.219323 78.5864C-0.0833247 77.8566 0.262421 77.021 0.991745 76.7191C1.71963 76.4172 2.5567 76.7622 2.85839 77.4925C3.16008 78.2227 2.8153 79.057 2.08549 79.3593" fill="#00ACB0"/>
<path d="M12.875 70.0287C12.1471 70.3306 11.31 69.9856 11.0093 69.2558C10.7067 68.5261 11.0524 67.6904 11.7817 67.3885C12.5096 67.0867 13.3462 67.4317 13.6479 68.1624C13.9496 68.8931 13.6048 69.7269 12.875 70.0292M52.9663 127.443C52.2384 127.745 51.4013 127.4 51.1006 126.671C50.7979 125.94 51.1437 125.105 51.873 124.803C52.6009 124.501 53.4375 124.846 53.7392 125.577C54.0409 126.307 53.6961 127.141 52.9663 127.443Z" fill="#E53750"/>
<path d="M48.0913 76.0316C46.9066 76.1859 45.82 75.3541 45.6635 74.1677C45.5054 72.9817 46.342 71.895 47.5263 71.7397C48.711 71.5826 49.799 72.4163 49.9532 73.6018C50.1093 74.7872 49.2761 75.8783 48.0913 76.0316Z" fill="#FECC38"/>
<path d="M54.4886 78.4602C53.5309 78.7156 52.5444 78.1488 52.2891 77.1904C52.0306 76.2307 52.6004 75.2474 53.5591 74.9882C54.5159 74.7304 55.5033 75.2996 55.7581 76.2589C56.0167 77.2173 55.4468 78.2029 54.4891 78.4597M41.9713 72.0643C40.5716 72.0643 39.4391 70.9316 39.4391 69.531C39.4381 68.1332 40.5716 67 41.9689 66.9995C43.3663 66.9986 44.5022 68.1327 44.4998 69.5314C44.4998 70.9306 43.3696 72.0662 41.9713 72.0638M69.8849 82.1402C69.4706 82.5537 68.7993 82.5542 68.3841 82.1402C67.9698 81.7262 67.9703 81.0525 68.385 80.6376C68.7997 80.2226 69.4711 80.2231 69.8858 80.6385C70.2996 81.0535 70.3005 81.7248 69.8849 82.1397" fill="#E53750"/>
<path d="M31.0142 72.9475C29.2103 72.9509 27.7454 71.4861 27.7454 69.6796C27.7464 67.877 29.2074 66.4155 31.0137 66.4141C32.8105 66.4093 34.2773 67.8765 34.2758 69.6791C34.2768 71.487 32.8172 72.9504 31.0137 72.947" fill="#FECC38"/>
<path d="M37.3253 78.3576C35.7388 78.5684 34.2825 77.4534 34.0728 75.8631C33.8635 74.277 34.9803 72.8194 36.5687 72.6095C38.1537 72.3987 39.6134 73.5171 39.8202 75.106C40.0285 76.6944 38.9142 78.1516 37.3253 78.3576Z" fill="#26BCEC"/>
<path d="M64.2442 84.3481C63.6202 84.8282 62.7214 84.7123 62.2425 84.0845C61.7613 83.4578 61.8786 82.5608 62.5059 82.0807C63.1299 81.6005 64.0278 81.7175 64.5076 82.3442C64.9889 82.9719 64.8715 83.867 64.2442 84.3481Z" fill="#FECC38"/>
<path d="M25.2165 95.8461C24.5925 96.3263 23.6937 96.2103 23.2148 95.5826C22.7335 94.9558 22.8509 94.0588 23.4782 93.5787C24.1022 93.0986 25 93.2155 25.4799 93.8423C25.9611 94.47 25.8438 95.365 25.2165 95.8461Z" fill="#233D8D"/>
<path d="M51.0407 84.4421C49.9364 84.8973 48.6717 84.375 48.2134 83.2701C47.7552 82.1661 48.2814 80.8996 49.3857 80.443C50.489 79.9844 51.7561 80.5077 52.2111 81.6131C52.6684 82.7176 52.1459 83.9864 51.0412 84.4426" fill="#00ACB0"/>
<path d="M21.6681 62.8427C20.5638 63.2979 19.2991 62.7756 18.8408 61.6702C18.3811 60.5657 18.9078 59.2997 20.0126 58.8431C21.1164 58.3841 22.383 58.9078 22.8379 60.0123C23.2957 61.1177 22.7728 62.3861 21.6685 62.8422M57.8479 85.1307C56.9888 85.6252 55.8893 85.3334 55.3951 84.4742C54.8971 83.6136 55.193 82.5163 56.0521 82.0185C56.9093 81.5201 58.0107 81.8153 58.5049 82.6759C59.0029 83.535 58.7075 84.6342 57.8479 85.1307ZM44.1028 82.1943C42.7505 82.5571 41.3636 81.7559 41.0016 80.4032C40.6401 79.0534 41.4412 77.6652 42.7912 77.303C44.1397 76.9403 45.5303 77.7414 45.8895 79.0932C46.2525 80.4444 45.4537 81.835 44.1033 82.1943M73.6713 84.6985C73.3782 85.2054 72.7303 85.3789 72.2213 85.0866C71.7146 84.7943 71.5413 84.1441 71.8334 83.6357C72.1269 83.1277 72.7758 82.9533 73.2834 83.2475C73.791 83.5417 73.9653 84.1901 73.6713 84.6985Z" fill="#233D8D"/>
<path d="M20.9488 85.886C19.2071 86.3556 17.4133 85.3196 16.9454 83.5755C16.4809 81.8342 17.5143 80.044 19.2584 79.5744C20.9933 79.1048 22.7896 80.1422 23.2541 81.884C23.7234 83.6296 22.6914 85.4212 20.9488 85.885" fill="#26BCEC"/>
<path d="M41.2434 89.4771C39.7656 90.0919 38.0704 89.3909 37.4555 87.9103C36.844 86.432 37.5456 84.7348 39.0263 84.121C40.5021 83.5062 42.2012 84.2087 42.8127 85.6903C43.4242 87.1709 42.7251 88.8667 41.2434 89.4771Z" fill="#FECC38"/>
<path d="M68.794 88.2915C68.3151 88.9173 67.4172 89.0371 66.7923 88.555C66.1649 88.0744 66.0467 87.1784 66.5279 86.5521C67.0068 85.9259 67.9047 85.8061 68.5306 86.2886C69.1579 86.7692 69.2752 87.6638 68.794 88.2915Z" fill="#00ACB0"/>
<path d="M56.0646 91.802C55.1164 92.5284 53.7593 92.3511 53.0304 91.4019C52.3016 90.4546 52.4831 89.0956 53.4312 88.3678C54.378 87.6394 55.737 87.8167 56.4625 88.7669C57.1904 89.7157 57.0132 91.0765 56.0651 91.8029" fill="#E53750"/>
<path d="M34.2562 119.09C33.308 119.816 31.9509 119.639 31.2221 118.69C30.4927 117.742 30.6738 116.383 31.6219 115.655C32.5691 114.927 33.9282 115.104 34.6532 116.054C35.3811 117.002 35.2039 118.362 34.2557 119.089M62.8186 90.7044C62.1166 91.4049 60.9797 91.4068 60.2791 90.7044C59.5761 90.0029 59.5776 88.8668 60.2791 88.1624C60.9783 87.4609 62.118 87.4604 62.8181 88.1634C63.5206 88.8644 63.5201 90.0024 62.8181 90.7049M48.7828 91.4279C47.5698 92.1275 46.0231 91.7135 45.3234 90.5003C44.6243 89.2908 45.0395 87.7427 46.2491 87.0431C47.4578 86.3435 49.0089 86.757 49.7056 87.9693C50.4048 89.1816 49.9929 90.7307 48.7814 91.4279M77.9912 86.1887C77.8394 86.7541 77.2585 87.0896 76.6911 86.9386C76.1251 86.7882 75.7889 86.2055 75.9407 85.6381C76.0925 85.0713 76.6743 84.7354 77.2408 84.8878C77.8069 85.0411 78.143 85.6209 77.9907 86.1887" fill="#26BCEC"/>
<path d="M39.7345 97.6749C38.1734 98.5796 36.1731 98.0439 35.2705 96.4799C34.3711 94.9178 34.9065 92.9206 36.47 92.0155C38.0235 91.1127 40.0271 91.6494 40.926 93.2119C41.831 94.7764 41.2976 96.775 39.7345 97.6749Z" fill="#E53750"/>
<path d="M47.9036 99.2021C46.6355 100.18 44.8168 99.9419 43.8404 98.6702C42.8658 97.4004 43.1048 95.5796 44.3757 94.6031C45.6428 93.627 47.4659 93.8651 48.4395 95.1388C49.413 96.41 49.1774 98.2294 47.9036 99.2021Z" fill="#00ACB0"/>
<path d="M74.2091 90.922C73.9088 91.6503 73.0722 91.9987 72.3434 91.6949C71.6141 91.393 71.2674 90.5583 71.57 89.8285C71.8717 89.1002 72.7073 88.7523 73.4367 89.0552C74.1665 89.3571 74.5117 90.1922 74.2091 90.922Z" fill="#E53750"/>
<path d="M62.8215 97.61C62.0936 98.5573 60.7365 98.7379 59.7873 98.0096C58.8382 97.2832 58.662 95.9233 59.3899 94.975C60.1158 94.0263 61.4744 93.8456 62.4211 94.5749C63.3693 95.3032 63.5498 96.6627 62.8215 97.6104" fill="#233D8D"/>
<path d="M69.0612 94.8011C68.5641 95.6588 67.4665 95.9559 66.6084 95.4594C65.7479 94.963 65.4553 93.8648 65.9504 93.0032C66.4446 92.1436 67.5451 91.8485 68.4032 92.3458C69.2638 92.8413 69.5573 93.9405 69.0612 94.8006M55.6906 99.1351C54.7007 100.125 53.0999 100.125 52.1096 99.1351C51.1216 98.1481 51.1216 96.5443 52.1096 95.5558C53.096 94.5668 54.7017 94.5649 55.6882 95.5558C56.677 96.5443 56.6804 98.1481 55.6906 99.1351ZM82.5482 86.5101C82.5482 87.0956 82.0741 87.5704 81.487 87.5714C80.9018 87.5714 80.4263 87.0961 80.4258 86.5091C80.4258 85.9216 80.9013 85.4468 81.4879 85.4473C82.0741 85.4482 82.5491 85.9216 82.5487 86.5101" fill="#FECC38"/>
<path d="M36.5859 107.512C35.3121 108.79 33.241 108.791 31.9648 107.514C30.692 106.238 30.691 104.171 31.9682 102.892C33.2352 101.617 35.3092 101.616 36.5821 102.893C37.8607 104.17 37.8631 106.237 36.5859 107.512Z" fill="#E53750"/>
<path d="M48.2752 109.716C47.3021 110.988 45.4843 111.23 44.212 110.254C42.943 109.28 42.7026 107.459 43.678 106.187C44.6492 104.916 46.4718 104.675 47.7418 105.652C49.0108 106.628 49.2531 108.446 48.2752 109.716ZM80.1203 92.0616C80.0183 92.8427 79.3014 93.3956 78.5185 93.2912C77.7355 93.1891 77.1848 92.4718 77.2877 91.6889C77.3907 90.9078 78.1085 90.3544 78.892 90.4584C79.6745 90.5614 80.2232 91.2777 80.1203 92.0616Z" fill="#233D8D"/>
<path d="M70.8502 101.47C70.3915 102.574 69.1282 103.1 68.023 102.642C66.9177 102.185 66.3958 100.917 66.8536 99.813C67.3095 98.708 68.5751 98.1824 69.678 98.6419C70.7822 99.099 71.309 100.365 70.8502 101.47" fill="#26BCEC"/>
<path d="M76.1504 97.1407C75.8928 98.099 74.9092 98.6692 73.9524 98.4119C72.9922 98.1565 72.4257 97.1709 72.681 96.2111C72.9367 95.2528 73.9237 94.6826 74.8804 94.9413C75.8396 95.1962 76.4076 96.1824 76.1504 97.1407ZM22.4893 121.471C22.2317 122.43 21.2476 123 20.2913 122.742C19.3307 122.486 18.7637 121.501 19.0194 120.541C19.2756 119.583 20.2621 119.012 21.2193 119.271C22.1785 119.526 22.7469 120.512 22.4903 121.471M64.3567 104.79C63.6566 106.002 62.1108 106.417 60.8978 105.718C59.6877 105.02 59.273 103.47 59.9717 102.26C60.6689 101.049 62.219 100.632 63.4282 101.333C64.6388 102.033 65.0564 103.581 64.3563 104.791M87.0342 85.6398C87.1851 86.2052 86.8499 86.7873 86.2834 86.9397C85.7183 87.0911 85.136 86.7543 84.9837 86.1874C84.8319 85.6211 85.1681 85.0389 85.7355 84.8879C86.3016 84.7365 86.8829 85.0715 87.0342 85.6393" fill="#00ACB0"/>
<path d="M59.6427 114.727C58.7434 116.291 56.7427 116.828 55.1796 115.925C53.6204 115.022 53.0855 113.026 53.9872 111.459C54.8827 109.9 56.8854 109.363 58.4455 110.266C60.01 111.168 60.5468 113.165 59.6427 114.727Z" fill="#26BCEC"/>
<path d="M67.4804 111.962C66.8699 113.443 65.1761 114.147 63.6949 113.534C62.2176 112.922 61.5146 111.226 62.1276 109.744C62.7367 108.265 64.4348 107.56 65.914 108.175C67.3923 108.788 68.0967 110.483 67.48 111.963" fill="#233D8D"/>
<path d="M86.1244 91.6312C86.2279 92.4123 85.6781 93.132 84.8952 93.2336C84.1127 93.3375 83.3963 92.7879 83.2928 92.004C83.1899 91.223 83.7401 90.5028 84.5235 90.4012C85.306 90.2977 86.0224 90.8468 86.1249 91.6307" fill="#26BCEC"/>
<path d="M79.6045 103.12C79.4465 104.305 78.3623 105.14 77.1766 104.984C75.9909 104.83 75.1587 103.74 75.3148 102.555C75.4699 101.37 76.5565 100.534 77.7403 100.692C78.9255 100.847 79.7611 101.934 79.6045 103.119" fill="#FECC38"/>
<path d="M83.6041 97.5651C83.6026 98.557 82.7996 99.3634 81.8093 99.362C80.8161 99.3639 80.0135 98.5589 80.0121 97.5651C80.0111 96.5732 80.8166 95.7663 81.8078 95.7682C82.8005 95.7673 83.605 96.5723 83.6041 97.5651ZM74.1904 108.008C73.8279 109.361 72.4411 110.162 71.0892 109.8C69.7407 109.439 68.9391 108.05 69.3011 106.7C69.6617 105.349 71.0504 104.545 72.3994 104.909C73.7508 105.271 74.5543 106.658 74.1904 108.008ZM91.142 83.6372C91.4341 84.1451 91.2608 84.7929 90.7527 85.0871C90.2465 85.3804 89.5967 85.2059 89.3031 84.698C89.0101 84.1901 89.1834 83.5408 89.6925 83.2481C90.2001 82.9558 90.8485 83.1283 91.1416 83.6376" fill="#E53750"/>
<path d="M72.2069 118.827C71.7424 120.571 69.9495 121.608 68.2059 121.14C66.4666 120.673 65.4332 118.882 65.9001 117.136C66.3599 115.398 68.1556 114.36 69.8959 114.828C71.6409 115.295 72.6757 117.085 72.2064 118.827" fill="#FECC38"/>
<path d="M79.0629 114.127C78.856 115.715 77.4027 116.835 75.8128 116.626C74.2277 116.417 73.1096 114.96 73.3179 113.371C73.5247 111.784 74.9824 110.663 76.5694 110.874C78.1569 111.084 79.2751 112.537 79.0629 114.127" fill="#26BCEC"/>
<path d="M91.8124 89.6603C92.1141 90.3887 91.7693 91.2258 91.0395 91.5267C90.3102 91.8295 89.4755 91.4836 89.1734 90.7538C88.8717 90.0255 89.2174 89.1884 89.9467 88.8865C90.6765 88.5837 91.5103 88.9296 91.8124 89.6599" fill="#FECC38"/>
<path d="M88.4862 102.446C88.6404 103.632 87.8091 104.718 86.6234 104.876C85.4382 105.034 84.3521 104.196 84.1969 103.012C84.0399 101.826 84.8731 100.738 86.0578 100.583C87.2421 100.427 88.331 101.26 88.4857 102.446" fill="#00ACB0"/>
<path d="M90.9131 96.0445C91.1684 97.0038 90.6019 97.99 89.6441 98.2458C88.6849 98.5046 87.7023 97.9344 87.4432 96.9751C87.1856 96.0177 87.7555 95.0297 88.7137 94.7757C89.6714 94.517 90.6565 95.0857 90.9131 96.0455M84.5211 108.57C84.5211 109.971 83.3891 111.103 81.9893 111.103C80.593 111.104 79.4599 109.971 79.4599 108.572C79.4599 107.175 80.5929 106.038 81.9903 106.04C83.3886 106.04 84.5235 107.172 84.5221 108.57M94.5918 80.6393C95.0046 81.0538 95.0051 81.7256 94.5909 82.1411C94.1771 82.5551 93.5038 82.5551 93.0896 82.1411C92.6749 81.7251 92.6754 81.0533 93.0906 80.6384C93.5058 80.2244 94.1767 80.2234 94.5914 80.6393" fill="#233D8D"/>
<path d="M85.4042 119.533C85.407 121.338 83.9436 122.804 82.1382 122.804C80.3367 122.803 78.8757 121.341 78.8747 119.533C78.869 117.735 80.3353 116.268 82.1373 116.27C83.9441 116.269 85.4066 117.729 85.4032 119.533" fill="#00ACB0"/>
<path d="M90.8107 113.219C91.0214 114.806 89.907 116.263 88.3177 116.474C86.7326 116.683 85.2758 115.565 85.0661 113.976C84.8554 112.39 85.9731 110.929 87.561 110.722C89.1485 110.514 90.6047 111.629 90.8107 113.219Z" fill="#FECC38"/>
<path d="M96.7971 86.2836C97.2769 86.9079 97.161 87.8073 96.5337 88.2865C95.9073 88.768 95.0109 88.6507 94.531 88.0229C94.0512 87.3981 94.168 86.4992 94.7954 86.0191C95.4217 85.538 96.3163 85.6559 96.7971 86.2826" fill="#00ACB0"/>
<path d="M96.8919 99.4942C97.3468 100.6 96.8248 101.865 95.7205 102.324C94.6167 102.784 93.3515 102.257 92.8952 101.151C92.4364 100.047 92.9598 98.7802 94.0636 98.3241C95.1684 97.8669 96.436 98.3892 96.8919 99.4942Z" fill="#E53750"/>
<path d="M97.58 92.683C98.0747 93.5431 97.7821 94.6428 96.924 95.1373C96.0639 95.6356 94.9673 95.34 94.4693 94.4808C93.9727 93.6221 94.2672 92.5201 95.1268 92.026C95.9854 91.5277 97.0839 91.8233 97.58 92.683ZM94.646 106.436C95.008 107.79 94.2073 109.177 92.855 109.54C91.507 109.902 90.1192 109.101 89.7567 107.749C89.3951 106.4 90.1958 105.009 91.5467 104.649C92.8971 104.286 94.2868 105.085 94.6464 106.436" fill="#26BCEC"/>
<path d="M98.3342 116.799C98.8035 118.541 97.7692 120.336 96.0261 120.803C94.2854 121.269 92.4958 120.236 92.0275 118.489C91.5572 116.754 92.594 114.957 94.3347 114.493C96.0797 114.023 97.8702 115.055 98.3342 116.799" fill="#E53750"/>
<path d="M101.923 109.298C102.537 110.777 101.837 112.474 100.357 113.088C98.8797 113.701 97.1835 112.998 96.5701 111.517C95.9571 110.041 96.6582 108.34 98.1389 107.728C99.6186 107.116 101.313 107.816 101.923 109.298Z" fill="#00ACB0"/>
<path d="M100.739 81.7305C101.364 82.2097 101.484 83.1076 101.002 83.7334C100.522 84.3611 99.6262 84.479 99.0003 83.9979C98.3744 83.5187 98.2552 82.6203 98.737 81.994C99.2173 81.3663 100.111 81.2489 100.739 81.7305Z" fill="#E53750"/>
<path d="M104.247 94.4677C104.973 95.4165 104.796 96.7744 103.848 97.5037C102.9 98.233 101.542 98.0514 100.815 97.1027C100.087 96.1539 100.264 94.795 101.214 94.0695C102.162 93.3412 103.521 93.5185 104.247 94.4672" fill="#233D8D"/>
<path d="M103.15 87.7095C103.85 88.412 103.852 89.5495 103.15 90.2501C102.45 90.9544 101.314 90.9525 100.61 90.251C99.9083 89.5505 99.9078 88.4101 100.61 87.71C101.311 87.0066 102.449 87.0071 103.15 87.71M103.873 101.754C104.573 102.968 104.159 104.515 102.946 105.215C101.738 105.915 100.19 105.5 99.4907 104.289C98.7916 103.079 99.2053 101.527 100.417 100.83C101.628 100.13 103.176 100.543 103.873 101.755" fill="#FECC38"/>
<path d="M110.117 110.807C111.021 112.37 110.486 114.372 108.922 115.274C107.361 116.174 105.366 115.639 104.461 114.074C103.559 112.52 104.095 110.515 105.657 109.615C107.221 108.71 109.217 109.243 110.116 110.808" fill="#233D8D"/>
<path d="M111.643 102.634C112.619 103.904 112.381 105.723 111.11 106.7C109.841 107.674 108.021 107.436 107.046 106.164C106.071 104.896 106.309 103.071 107.581 102.098C108.852 101.124 110.67 101.36 111.642 102.634" fill="#E53750"/>
<path d="M110.052 87.7067C110.999 88.435 111.179 89.7925 110.451 90.7427C109.725 91.6929 108.366 91.8687 107.418 91.1413C106.47 90.4144 106.289 89.0541 107.018 88.1073C107.745 87.1585 109.104 86.9774 110.051 87.7062" fill="#26BCEC"/>
<path d="M111.576 94.8417C112.565 95.8326 112.565 97.4349 111.576 98.4259C110.589 99.4139 108.986 99.4139 107.998 98.4259C107.01 97.4378 107.008 95.8312 107.998 94.8446C108.986 93.8546 110.589 93.8527 111.576 94.8422" fill="#00ACB0"/>
<path d="M119.947 101.97C121.225 103.245 121.226 105.317 119.949 106.594C118.674 107.868 116.609 107.868 115.33 106.59C114.056 105.321 114.056 103.246 115.331 101.973C116.608 100.693 118.673 100.692 119.947 101.97" fill="#26BCEC"/>
<path d="M119.307 93.679C120.578 94.6517 120.821 96.4711 119.845 97.7443C118.872 99.0141 117.052 99.2546 115.781 98.279C114.511 97.3063 114.269 95.4831 115.246 94.2123C116.221 92.9425 118.038 92.7006 119.307 93.679Z" fill="#233D8D"/>
<path d="M93.0911 55.9177C93.5053 55.5042 94.1767 55.5037 94.5918 55.9177C95.0061 56.3322 95.0056 57.0054 94.5918 57.4204C94.1762 57.8354 93.5048 57.8349 93.0906 57.4194C92.6763 57.0045 92.6754 56.3332 93.0906 55.9182" fill="#FECC38"/>
<path d="M98.7317 53.7101C99.3556 53.2309 100.254 53.3469 100.733 53.9746C101.215 54.6008 101.097 55.4974 100.47 55.9775C99.846 56.4581 98.9481 56.3417 98.4683 55.714C97.987 55.0862 98.1043 54.1916 98.7317 53.711" fill="#233D8D"/>
<path d="M89.3041 53.3592C89.5972 52.8522 90.2456 52.6788 90.7541 52.9711C91.2608 53.2634 91.4341 53.9136 91.142 54.422C90.8485 54.9299 90.1996 55.1043 89.692 54.8101C89.1844 54.5159 89.0101 53.8676 89.3041 53.3592Z" fill="#00ACB0"/>
<path d="M94.1819 49.7666C94.6608 49.1408 95.5582 49.021 96.1836 49.5031C96.8109 49.9837 96.9287 50.8797 96.4479 51.506C95.9691 52.1318 95.0712 52.2516 94.4453 51.7695C93.818 51.2889 93.7006 50.3943 94.1819 49.7666Z" fill="#26BCEC"/>
<path d="M106.911 46.256C107.859 45.5295 109.217 45.7068 109.945 46.6561C110.674 47.6034 110.493 48.9628 109.545 49.6902C108.598 50.4185 107.239 50.2412 106.514 49.291C105.786 48.3423 105.963 46.9814 106.911 46.255" fill="#FECC38"/>
<path d="M100.157 47.3533C100.859 46.6527 101.996 46.6508 102.696 47.3533C103.4 48.0543 103.398 49.1909 102.697 49.8948C101.997 50.5972 100.857 50.5977 100.158 49.8948C99.4548 49.1933 99.4553 48.0548 100.158 47.3533" fill="#E53750"/>
<path d="M148.848 53.9095H139.355V62.7712H149.343C149.894 62.7712 150.169 63.0108 150.169 63.4929V65.698C150.169 66.2332 149.894 66.4996 149.343 66.4996H135.929C135.406 66.4996 135.145 66.2337 135.145 65.6985V39.0741C135.145 38.5661 135.406 38.3122 135.929 38.3122H149.219C149.77 38.3122 150.045 38.5661 150.045 39.0741V41.2797C150.045 41.8144 149.77 42.0813 149.219 42.0813H139.354V50.3014H148.848C149.343 50.3014 149.591 50.5688 149.591 51.1031V53.1079C149.591 53.6431 149.343 53.91 148.848 53.91M165.303 58.8814C164.965 58.8814 164.697 58.7185 164.501 58.3926L158.088 45.9702V65.6975C158.088 66.2327 157.841 66.4996 157.346 66.4996H154.704C154.18 66.4996 153.919 66.2332 153.919 65.6985V39.0741C153.919 38.5661 154.18 38.3122 154.704 38.3122H157.263C157.73 38.3122 158.047 38.4703 158.212 38.7866L165.272 52.4629L172.369 38.7933C172.534 38.4722 172.836 38.3122 173.277 38.3122H175.836C176.358 38.3122 176.62 38.5661 176.62 39.0741V65.6985C176.62 66.2332 176.358 66.5001 175.836 66.5001H173.193C172.698 66.5001 172.451 66.2342 172.451 65.6999V46.0239L166.103 58.4247C165.963 58.73 165.695 58.8823 165.301 58.8823M193.134 58.8814C192.796 58.8814 192.528 58.7185 192.331 58.3926L185.92 45.9702V65.6975C185.92 66.2327 185.672 66.4996 185.177 66.4996H182.535C182.012 66.4996 181.751 66.2332 181.751 65.6985V39.0741C181.751 38.5661 182.012 38.3122 182.534 38.3122H185.094C185.561 38.3122 185.878 38.4703 186.044 38.7866L193.102 52.4629L200.201 38.7933C200.366 38.4722 200.668 38.3122 201.109 38.3122H203.668C204.19 38.3122 204.452 38.5661 204.452 39.0741V65.6985C204.452 66.2332 204.19 66.5001 203.668 66.5001H201.026C200.53 66.5001 200.283 66.2342 200.283 65.6999V46.0239L193.936 58.4247C193.795 58.73 193.528 58.8823 193.133 58.8823M215.096 55.9541H222.361L218.769 42.5217H218.688L215.096 55.9541ZM216.789 38.3112H220.381C220.903 38.3112 221.248 38.5796 221.412 39.1134L229.419 65.6573C229.502 65.8978 229.481 66.0981 229.357 66.2591C229.233 66.4191 229.048 66.4987 228.8 66.4987H225.952C225.511 66.4987 225.209 66.2591 225.044 65.7771L223.269 59.6025H214.059L212.302 65.7809C212.189 66.2601 211.877 66.4996 211.366 66.4996H208.43C207.838 66.4996 207.611 66.2074 207.749 65.6218L215.757 39.0779C215.922 38.5666 216.265 38.3112 216.788 38.3112M241.236 66.9007C238.043 66.9007 235.684 66.1125 234.157 64.5351C232.629 62.9586 231.866 60.5656 231.866 57.3581V39.0741C231.866 38.5661 232.127 38.3122 232.65 38.3122H235.293C235.842 38.3122 236.118 38.5661 236.118 39.0741V56.9973C236.118 59.0817 236.516 60.6255 237.315 61.628C238.113 62.6304 239.419 63.1316 241.236 63.1316C243.052 63.1316 244.358 62.6304 245.157 61.628C245.955 60.6255 246.354 59.0817 246.354 56.9968V39.0731C246.354 38.5652 246.614 38.3112 247.138 38.3112H249.82C250.343 38.3112 250.605 38.5652 250.605 39.0731V57.3571C250.605 63.7195 247.482 66.9007 241.236 66.9007ZM270.466 59.3625C270.466 61.8484 269.64 63.7133 267.989 64.9558C266.338 66.1987 264.027 66.8197 261.055 66.8197C258.303 66.8197 256.144 66.5121 254.575 65.8978C254.053 65.6573 253.832 65.3362 253.914 64.9347L254.493 62.8906C254.63 62.329 254.96 62.1555 255.483 62.3692C256.968 62.9045 258.702 63.1714 260.683 63.1714C264.342 63.1714 266.173 61.8743 266.173 59.2791C266.173 58.1027 265.766 57.1257 264.955 56.3504C264.144 55.5751 262.845 54.7069 261.058 53.7423L258.464 52.231C257.769 51.8261 257.071 51.2832 256.37 50.6018C255.668 49.9195 255.146 49.1308 254.802 48.2357C254.457 47.3397 254.286 46.331 254.286 45.2084C254.286 40.3434 257.216 37.9106 263.077 37.9106C265.361 37.9106 267.259 38.1914 268.773 38.7525C269.323 38.9672 269.542 39.2878 269.434 39.7157L268.856 41.72C268.718 42.2279 268.373 42.3885 267.823 42.2011C266.584 41.8005 265.113 41.6002 263.407 41.6002C261.7 41.6002 260.469 41.8887 259.713 42.4661C258.956 43.043 258.578 43.9755 258.578 45.2625C258.578 45.8528 258.686 46.3967 258.905 46.8931C259.123 47.389 259.505 47.8658 260.052 48.321C260.598 48.7777 261.083 49.1308 261.506 49.3809C261.929 49.6315 262.564 50.0067 263.412 50.5079C264.352 51.0638 265.086 51.4989 265.616 51.8113C266.145 52.1251 266.769 52.5612 267.486 53.1213C268.203 53.6819 268.741 54.2282 269.1 54.7615C269.458 55.2958 269.775 55.9623 270.051 56.762C270.328 57.5632 270.466 58.429 270.466 59.3625ZM145.364 95.8146C146.633 95.8146 147.904 95.5462 149.174 95.012C149.64 94.8515 149.951 95.0388 150.107 95.5726L150.767 97.5381C150.87 97.8855 150.664 98.1932 150.145 98.4601C148.798 99.2095 146.997 99.5832 144.743 99.5832C141.192 99.5832 138.543 98.4347 136.794 96.1351C135.044 93.8366 134.17 90.1599 134.17 85.1086C134.17 80.0835 135.031 76.4146 136.755 74.1021C138.478 71.7901 141.088 70.6329 144.587 70.6329C146.608 70.6329 148.37 70.9942 149.874 71.7159C150.417 71.9569 150.625 72.2645 150.495 72.6382L149.873 74.6028C149.718 75.1117 149.407 75.2852 148.941 75.1251C147.8 74.6436 146.556 74.403 145.209 74.403C142.774 74.403 141.011 75.219 139.923 76.8492C138.834 78.4798 138.29 81.2335 138.29 85.109C138.29 88.9855 138.848 91.7388 139.962 93.3699C141.076 95 142.878 95.8151 145.365 95.8151M157.5 93.3684C158.446 95.0522 159.929 95.8936 161.95 95.8936C163.972 95.8936 165.455 95.0522 166.401 93.3684C167.347 91.6842 167.82 88.9448 167.82 85.1483C167.82 81.326 167.346 78.566 166.401 76.8683C165.455 75.1711 163.972 74.3225 161.95 74.3225C159.929 74.3225 158.446 75.1706 157.5 76.8683C156.553 78.566 156.081 81.326 156.081 85.1483C156.081 88.9448 156.553 91.6842 157.5 93.3684ZM154.507 74.1217C156.178 71.7959 158.659 70.6334 161.95 70.6334C165.241 70.6334 167.723 71.7959 169.394 74.1217C171.065 76.4476 171.901 80.1228 171.901 85.1483C171.901 90.1748 171.065 93.8366 169.394 96.1347C167.723 98.4347 165.228 99.5832 161.912 99.5832C158.647 99.5832 156.178 98.4275 154.507 96.1141C152.835 93.803 152 90.147 152 85.1483C152 80.1228 152.836 76.4476 154.507 74.1217ZM193.489 71.7556V98.4198C193.489 98.9555 193.229 99.2219 192.709 99.2219H190.254C189.787 99.2219 189.462 99.0236 189.28 98.6268L179.38 78.5737V98.4208C179.38 98.956 179.146 99.2224 178.68 99.2224H176.232C175.738 99.2224 175.493 98.9565 175.493 98.4208V71.7968C175.493 71.2889 175.737 71.035 176.225 71.035H178.658C179.147 71.035 179.482 71.2276 179.662 71.6114L189.564 91.757V71.7997C189.564 71.2899 189.809 71.035 190.301 71.035H192.712C193.23 71.035 193.49 71.2755 193.49 71.7571M215.929 71.7556V98.4198C215.929 98.9555 215.668 99.2219 215.148 99.2219H212.693C212.226 99.2219 211.901 99.0236 211.719 98.6268L201.818 78.5737V98.4208C201.818 98.956 201.585 99.2224 201.119 99.2224H198.67C198.177 99.2224 197.931 98.9565 197.931 98.4208V71.7968C197.931 71.2889 198.175 71.035 198.665 71.035H201.097C201.585 71.035 201.92 71.2276 202.1 71.6114L212.002 91.757V71.7997C212.002 71.2899 212.248 71.035 212.74 71.035H215.151C215.669 71.035 215.928 71.2755 215.928 71.7571M233.276 86.6318H224.335V95.4931H233.742C234.26 95.4931 234.518 95.7326 234.518 96.2142V98.4198C234.518 98.955 234.26 99.2215 233.742 99.2215H221.11C220.615 99.2215 220.37 98.9555 220.37 98.4203V71.7959C220.37 71.288 220.615 71.034 221.109 71.034H233.624C234.142 71.034 234.402 71.288 234.402 71.7959V74.0015C234.402 74.5362 234.142 74.8031 233.624 74.8031H224.333V83.0232H233.274C233.741 83.0232 233.974 83.2901 233.974 83.8249V85.8297C233.974 86.3649 233.741 86.6318 233.274 86.6318M248.104 95.8146C249.373 95.8146 250.643 95.5462 251.913 95.012C252.38 94.8515 252.69 95.0388 252.846 95.5726L253.506 97.5381C253.61 97.8855 253.403 98.1932 252.885 98.4601C251.538 99.2095 249.737 99.5832 247.482 99.5832C243.932 99.5832 241.283 98.4347 239.533 96.1351C237.784 93.8366 236.91 90.1599 236.91 85.1086C236.91 80.0835 237.772 76.4146 239.495 74.1021C241.218 71.7901 243.828 70.6329 247.327 70.6329C249.348 70.6329 251.11 70.9942 252.614 71.7159C253.158 71.9569 253.364 72.2645 253.235 72.6382L252.613 74.6028C252.458 75.1117 252.146 75.2852 251.68 75.1251C250.54 74.6436 249.296 74.403 247.949 74.403C245.513 74.403 243.751 75.219 242.663 76.8492C241.574 78.4798 241.03 81.2335 241.03 85.109C241.03 88.9855 241.587 91.7388 242.701 93.3699C243.815 95 245.616 95.8151 248.104 95.8151M255.544 74.0815V71.7959C255.544 71.2889 255.789 71.034 256.282 71.034H270.819C271.336 71.034 271.596 71.2889 271.596 71.7959V74.0815C271.596 74.5894 271.337 74.8434 270.819 74.8434H265.572V98.4203C265.572 98.9555 265.312 99.2224 264.794 99.2224H262.307C261.814 99.2224 261.568 98.9555 261.568 98.4203V74.8434H256.281C255.789 74.8434 255.544 74.5894 255.544 74.0815Z" fill="white"/>
<path d="M235.783 32.579C235.783 31.4702 236.681 30.5713 237.789 30.5713C238.897 30.5713 239.796 31.4702 239.796 32.579C239.796 33.6878 238.897 34.5867 237.789 34.5867C236.681 34.5867 235.783 33.6878 235.783 32.579ZM242.675 32.579C242.675 31.4702 243.574 30.5713 244.682 30.5713C245.79 30.5713 246.688 31.4702 246.688 32.579C246.688 33.6878 245.79 34.5867 244.682 34.5867C243.574 34.5867 242.675 33.6878 242.675 32.579Z" fill="#E53750"/>
</g>
<defs>
<clipPath id="clip0_1116_8899">
<rect width="272" height="138" fill="white"/>
</clipPath>
</defs>
</svg>
